<?xml version="1.0" encoding="UTF-8" standalone="no"?>
<!DOCTYPE svg PUBLIC "-//W3C//DTD SVG 1.1//EN"
 "http://www.w3.org/Graphics/SVG/1.1/DTD/svg11.dtd">
<!-- Generated by graphviz version 10.0.1 (0)
 -->
<!-- Title: G Pages: 1 -->
<svg width="438px" height="687px"
 viewBox="0.00 0.00 437.75 686.50" xmlns="http://www.w3.org/2000/svg" xmlns:xlink="http://www.w3.org/1999/xlink">
<g id="graph0" class="graph" transform="scale(1 1) rotate(0) translate(4 682.5)">
<title>G</title>
<text text-anchor="middle" x="214.88" y="-7.2" font-family="Times,serif" font-size="14.00">Configuration Paths in an AIA System</text>
<g id="clust1" class="cluster">
<title>main</title>
<polygon fill="none" stroke="none" points="8,-32.5 8,-570.5 421.75,-570.5 421.75,-32.5 8,-32.5"/>
</g>
<g id="clust2" class="cluster">
<title>aplic</title>
<polygon fill="#f8cecc" stroke="#b85450" points="16,-178.5 16,-453.5 108.75,-453.5 108.75,-178.5 16,-178.5"/>
<text text-anchor="middle" x="62.38" y="-436.2" font-family="Times,serif" font-size="14.00">APLIC</text>
</g>
<g id="clust3" class="cluster">
<title>imsic_hart_0</title>
<polygon fill="none" stroke="none" points="210.75,-40.5 210.75,-295.5 413.25,-295.5 413.25,-40.5 210.75,-40.5"/>
</g>
<g id="clust4" class="cluster">
<title>imsic_0</title>
<polygon fill="#f8cecc" stroke="#b85450" points="218.75,-48.5 218.75,-287.5 322.75,-287.5 322.75,-48.5 218.75,-48.5"/>
<text text-anchor="middle" x="270.75" y="-270.2" font-family="Times,serif" font-size="14.00">IMSIC 0</text>
</g>
<g id="clust5" class="cluster">
<title>imsic_hart__</title>
<polygon fill="none" stroke="none" points="210.75,-305.5 210.75,-560.5 413.75,-560.5 413.75,-305.5 210.75,-305.5"/>
</g>
<g id="clust6" class="cluster">
<title>imsic__</title>
<polygon fill="#f8cecc" stroke="#b85450" points="218.75,-313.5 218.75,-552.5 322.75,-552.5 322.75,-313.5 218.75,-313.5"/>
<text text-anchor="middle" x="270.75" y="-535.2" font-family="Times,serif" font-size="14.00">IMSIC ...</text>
</g>
<g id="clust7" class="cluster">
<title>legend</title>
<polygon fill="none" stroke="gray" points="260.88,-578.5 260.88,-670.5 409.5,-670.5 409.5,-578.5 260.88,-578.5"/>
<text text-anchor="middle" x="335.19" y="-653.2" font-family="Times,serif" font-size="14.00">Legend</text>
</g>
<!-- m_domain -->
<g id="node1" class="node">
<title>m_domain</title>
<polygon fill="none" stroke="black" points="100.75,-294.5 24,-294.5 24,-186.5 100.75,-186.5 100.75,-294.5"/>
<text text-anchor="middle" x="62.38" y="-235.45" font-family="Times,serif" font-size="14.00">M Domain</text>
</g>
<!-- s_domain -->
<g id="node2" class="node">
<title>s_domain</title>
<polygon fill="none" stroke="black" points="98.12,-420.5 26.62,-420.5 26.62,-312.5 98.12,-312.5 98.12,-420.5"/>
<text text-anchor="middle" x="62.38" y="-361.45" font-family="Times,serif" font-size="14.00">S Domain</text>
</g>
<!-- bus_network -->
<g id="node3" class="node">
<title>bus_network</title>
<polygon fill="none" stroke="black" points="190.75,-555.5 136.75,-555.5 136.75,-51.5 190.75,-51.5 190.75,-555.5"/>
<text text-anchor="middle" x="163.75" y="-298.45" font-family="Times,serif" font-size="14.00">Bus</text>
</g>
<!-- bus_network&#45;&gt;m_domain -->
<g id="edge1" class="edge">
<title>bus_network&#45;&gt;m_domain</title>
<path fill="none" stroke="black" d="M136.32,-240.5C136.32,-242.5 112.76,-242.5 112.76,-240.5"/>
<path fill="none" stroke="none" d="M136.32,-240.5C136.32,-240.5 112.76,-240.5 112.76,-240.5"/>
<path fill="none" stroke="black" d="M136.32,-240.5C136.32,-238.5 112.76,-238.5 112.76,-240.5"/>
<polygon fill="black" stroke="black" points="112.76,-237 102.76,-240.5 112.76,-244 112.76,-237"/>
</g>
<!-- bus_network&#45;&gt;s_domain -->
<g id="edge2" class="edge">
<title>bus_network&#45;&gt;s_domain</title>
<path fill="none" stroke="black" d="M136.32,-366.5C136.32,-368.5 110.11,-368.5 110.11,-366.5"/>
<path fill="none" stroke="none" d="M136.32,-366.5C136.32,-366.5 110.11,-366.5 110.11,-366.5"/>
<path fill="none" stroke="black" d="M136.32,-366.5C136.32,-364.5 110.11,-364.5 110.11,-366.5"/>
<polygon fill="black" stroke="black" points="110.11,-363 100.11,-366.5 110.11,-370 110.11,-363"/>
</g>
<!-- imsic_0_mint_file -->
<g id="node4" class="node">
<title>imsic_0_mint_file</title>
<polygon fill="none" stroke="black" points="305,-92.5 236.5,-92.5 236.5,-56.5 305,-56.5 305,-92.5"/>
<text text-anchor="middle" x="270.75" y="-69.45" font-family="Times,serif" font-size="14.00">M IntFile</text>
</g>
<!-- imsic_0_mint_file&#45;&gt;bus_network -->
<g id="edge4" class="edge">
<title>imsic_0_mint_file&#45;&gt;bus_network</title>
<path fill="none" stroke="none" d="M236.01,-74.5C236.01,-74.5 202.72,-74.5 202.72,-74.5"/>
<polygon fill="none" stroke="none" points="202.72,-71 192.72,-74.5 202.72,-78 202.72,-71"/>
</g>
<!-- imsic_0_sint_file -->
<g id="node5" class="node">
<title>imsic_0_sint_file</title>
<polygon fill="none" stroke="black" points="302.38,-146.5 239.12,-146.5 239.12,-110.5 302.38,-110.5 302.38,-146.5"/>
<text text-anchor="middle" x="270.75" y="-123.45" font-family="Times,serif" font-size="14.00">S IntFile</text>
</g>
<!-- imsic_0_sint_file&#45;&gt;bus_network -->
<g id="edge6" class="edge">
<title>imsic_0_sint_file&#45;&gt;bus_network</title>
<path fill="none" stroke="none" d="M238.65,-128.5C238.65,-128.5 202.64,-128.5 202.64,-128.5"/>
<polygon fill="none" stroke="none" points="202.64,-125 192.64,-128.5 202.64,-132 202.64,-125"/>
</g>
<!-- imsic_0_vsint_file_0 -->
<g id="node6" class="node">
<title>imsic_0_vsint_file_0</title>
<polygon fill="none" stroke="black" points="312.5,-200.5 229,-200.5 229,-164.5 312.5,-164.5 312.5,-200.5"/>
<text text-anchor="middle" x="270.75" y="-177.45" font-family="Times,serif" font-size="14.00">VS IntFile 0</text>
</g>
<!-- imsic_0_vsint_file_0&#45;&gt;bus_network -->
<g id="edge8" class="edge">
<title>imsic_0_vsint_file_0&#45;&gt;bus_network</title>
<path fill="none" stroke="none" d="M228.77,-182.5C228.77,-182.5 202.65,-182.5 202.65,-182.5"/>
<polygon fill="none" stroke="none" points="202.65,-179 192.65,-182.5 202.65,-186 202.65,-179"/>
</g>
<!-- imsic_0_vsint_file__ -->
<g id="node7" class="node">
<title>imsic_0_vsint_file__</title>
<polygon fill="none" stroke="black" points="314.75,-254.5 226.75,-254.5 226.75,-218.5 314.75,-218.5 314.75,-254.5"/>
<text text-anchor="middle" x="270.75" y="-231.45" font-family="Times,serif" font-size="14.00">VS IntFile ...</text>
</g>
<!-- imsic_0_vsint_file__&#45;&gt;bus_network -->
<g id="edge10" class="edge">
<title>imsic_0_vsint_file__&#45;&gt;bus_network</title>
<path fill="none" stroke="none" d="M226.3,-236.5C226.3,-236.5 202.6,-236.5 202.6,-236.5"/>
<polygon fill="none" stroke="none" points="202.6,-233 192.6,-236.5 202.6,-240 202.6,-233"/>
</g>
<!-- hart_0 -->
<g id="node8" class="node">
<title>hart_0</title>
<polygon fill="none" stroke="black" points="405.25,-287.7 351.25,-287.7 351.25,-57.3 405.25,-57.3 405.25,-287.7"/>
<text text-anchor="middle" x="378.25" y="-167.45" font-family="Times,serif" font-size="14.00">Hart 0</text>
</g>
<!-- hart_0&#45;&gt;bus_network -->
<g id="edge11" class="edge">
<title>hart_0&#45;&gt;bus_network</title>
<path fill="none" stroke="black" d="M351.08,-101.5C351.08,-103.5 202.55,-103.5 202.55,-101.5"/>
<path fill="none" stroke="none" d="M351.08,-101.5C351.08,-101.5 202.55,-101.5 202.55,-101.5"/>
<path fill="none" stroke="black" d="M351.08,-101.5C351.08,-99.5 202.55,-99.5 202.55,-101.5"/>
<polygon fill="black" stroke="black" points="202.55,-98 192.55,-101.5 202.55,-105 202.55,-98"/>
</g>
<!-- hart_0&#45;&gt;imsic_0_mint_file -->
<g id="edge3" class="edge">
<title>hart_0&#45;&gt;imsic_0_mint_file</title>
<path fill="none" stroke="black" d="M350.85,-74.9C350.85,-74.9 316.95,-74.9 316.95,-74.9"/>
<polygon fill="black" stroke="black" points="316.95,-71.4 306.95,-74.9 316.95,-78.4 316.95,-71.4"/>
</g>
<!-- hart_0&#45;&gt;imsic_0_sint_file -->
<g id="edge5" class="edge">
<title>hart_0&#45;&gt;imsic_0_sint_file</title>
<path fill="none" stroke="black" d="M350.85,-128.5C350.85,-128.5 314.2,-128.5 314.2,-128.5"/>
<polygon fill="black" stroke="black" points="314.2,-125 304.2,-128.5 314.2,-132 314.2,-125"/>
</g>
<!-- hart_0&#45;&gt;imsic_0_vsint_file_0 -->
<g id="edge7" class="edge">
<title>hart_0&#45;&gt;imsic_0_vsint_file_0</title>
<path fill="none" stroke="black" d="M350.85,-182.5C350.85,-182.5 324.26,-182.5 324.26,-182.5"/>
<polygon fill="black" stroke="black" points="324.26,-179 314.26,-182.5 324.26,-186 324.26,-179"/>
</g>
<!-- hart_0&#45;&gt;imsic_0_vsint_file__ -->
<g id="edge9" class="edge">
<title>hart_0&#45;&gt;imsic_0_vsint_file__</title>
<path fill="none" stroke="black" d="M350.85,-236.5C350.85,-236.5 326.74,-236.5 326.74,-236.5"/>
<polygon fill="black" stroke="black" points="326.74,-233 316.74,-236.5 326.74,-240 326.74,-233"/>
</g>
<!-- imsic___mint_file -->
<g id="node9" class="node">
<title>imsic___mint_file</title>
<polygon fill="none" stroke="black" points="305,-357.5 236.5,-357.5 236.5,-321.5 305,-321.5 305,-357.5"/>
<text text-anchor="middle" x="270.75" y="-334.45" font-family="Times,serif" font-size="14.00">M IntFile</text>
</g>
<!-- imsic___mint_file&#45;&gt;bus_network -->
<g id="edge13" class="edge">
<title>imsic___mint_file&#45;&gt;bus_network</title>
<path fill="none" stroke="none" d="M236.01,-339.5C236.01,-339.5 202.72,-339.5 202.72,-339.5"/>
<polygon fill="none" stroke="none" points="202.72,-336 192.72,-339.5 202.72,-343 202.72,-336"/>
</g>
<!-- imsic___sint_file -->
<g id="node10" class="node">
<title>imsic___sint_file</title>
<polygon fill="none" stroke="black" points="302.38,-411.5 239.12,-411.5 239.12,-375.5 302.38,-375.5 302.38,-411.5"/>
<text text-anchor="middle" x="270.75" y="-388.45" font-family="Times,serif" font-size="14.00">S IntFile</text>
</g>
<!-- imsic___sint_file&#45;&gt;bus_network -->
<g id="edge15" class="edge">
<title>imsic___sint_file&#45;&gt;bus_network</title>
<path fill="none" stroke="none" d="M238.65,-393.5C238.65,-393.5 202.64,-393.5 202.64,-393.5"/>
<polygon fill="none" stroke="none" points="202.64,-390 192.64,-393.5 202.64,-397 202.64,-390"/>
</g>
<!-- imsic___vsint_file_0 -->
<g id="node11" class="node">
<title>imsic___vsint_file_0</title>
<polygon fill="none" stroke="black" points="312.5,-465.5 229,-465.5 229,-429.5 312.5,-429.5 312.5,-465.5"/>
<text text-anchor="middle" x="270.75" y="-442.45" font-family="Times,serif" font-size="14.00">VS IntFile 0</text>
</g>
<!-- imsic___vsint_file_0&#45;&gt;bus_network -->
<g id="edge17" class="edge">
<title>imsic___vsint_file_0&#45;&gt;bus_network</title>
<path fill="none" stroke="none" d="M228.77,-447.5C228.77,-447.5 202.65,-447.5 202.65,-447.5"/>
<polygon fill="none" stroke="none" points="202.65,-444 192.65,-447.5 202.65,-451 202.65,-444"/>
</g>
<!-- imsic___vsint_file__ -->
<g id="node12" class="node">
<title>imsic___vsint_file__</title>
<polygon fill="none" stroke="black" points="314.75,-519.5 226.75,-519.5 226.75,-483.5 314.75,-483.5 314.75,-519.5"/>
<text text-anchor="middle" x="270.75" y="-496.45" font-family="Times,serif" font-size="14.00">VS IntFile ...</text>
</g>
<!-- imsic___vsint_file__&#45;&gt;bus_network -->
<g id="edge19" class="edge">
<title>imsic___vsint_file__&#45;&gt;bus_network</title>
<path fill="none" stroke="none" d="M226.3,-501.5C226.3,-501.5 202.6,-501.5 202.6,-501.5"/>
<polygon fill="none" stroke="none" points="202.6,-498 192.6,-501.5 202.6,-505 202.6,-498"/>
</g>
<!-- hart__ -->
<g id="node13" class="node">
<title>hart__</title>
<polygon fill="none" stroke="black" points="405.75,-552.7 350.75,-552.7 350.75,-322.3 405.75,-322.3 405.75,-552.7"/>
<text text-anchor="middle" x="378.25" y="-432.45" font-family="Times,serif" font-size="14.00">Hart ...</text>
</g>
<!-- hart__&#45;&gt;bus_network -->
<g id="edge20" class="edge">
<title>hart__&#45;&gt;bus_network</title>
<path fill="none" stroke="black" d="M350.65,-420.5C350.65,-422.5 202.76,-422.5 202.76,-420.5"/>
<path fill="none" stroke="none" d="M350.65,-420.5C350.65,-420.5 202.76,-420.5 202.76,-420.5"/>
<path fill="none" stroke="black" d="M350.65,-420.5C350.65,-418.5 202.76,-418.5 202.76,-420.5"/>
<polygon fill="black" stroke="black" points="202.76,-417 192.76,-420.5 202.76,-424 202.76,-417"/>
</g>
<!-- hart__&#45;&gt;imsic___mint_file -->
<g id="edge12" class="edge">
<title>hart__&#45;&gt;imsic___mint_file</title>
<path fill="none" stroke="black" d="M350.29,-339.9C350.29,-339.9 317.01,-339.9 317.01,-339.9"/>
<polygon fill="black" stroke="black" points="317.01,-336.4 307.01,-339.9 317.01,-343.4 317.01,-336.4"/>
</g>
<!-- hart__&#45;&gt;imsic___sint_file -->
<g id="edge14" class="edge">
<title>hart__&#45;&gt;imsic___sint_file</title>
<path fill="none" stroke="black" d="M350.29,-393.5C350.29,-393.5 314.27,-393.5 314.27,-393.5"/>
<polygon fill="black" stroke="black" points="314.27,-390 304.27,-393.5 314.27,-397 314.27,-390"/>
</g>
<!-- hart__&#45;&gt;imsic___vsint_file_0 -->
<g id="edge16" class="edge">
<title>hart__&#45;&gt;imsic___vsint_file_0</title>
<path fill="none" stroke="black" d="M350.29,-447.5C350.29,-447.5 324.27,-447.5 324.27,-447.5"/>
<polygon fill="black" stroke="black" points="324.27,-444 314.27,-447.5 324.27,-451 324.27,-444"/>
</g>
<!-- hart__&#45;&gt;imsic___vsint_file__ -->
<g id="edge18" class="edge">
<title>hart__&#45;&gt;imsic___vsint_file__</title>
<path fill="none" stroke="black" d="M350.29,-501.5C350.29,-501.5 326.75,-501.5 326.75,-501.5"/>
<polygon fill="black" stroke="black" points="326.75,-498 316.75,-501.5 326.75,-505 326.75,-498"/>
</g>
<!-- legend_$wire_edge_src -->
<g id="node14" class="node">
<title>legend_$wire_edge_src</title>
<text text-anchor="middle" x="378.25" y="-589.45" font-family="Times,serif" font-size="14.00">wire</text>
</g>
<!-- legend_$wire_edge_dst -->
<g id="node15" class="node">
<title>legend_$wire_edge_dst</title>
<text text-anchor="middle" x="270.75" y="-589.45" font-family="Times,serif" font-size="14.00"> </text>
</g>
<!-- legend_$wire_edge_src&#45;&gt;legend_$wire_edge_dst -->
<g id="edge21" class="edge">
<title>legend_$wire_edge_src&#45;&gt;legend_$wire_edge_dst</title>
<path fill="none" stroke="black" d="M366.33,-594.5C366.33,-594.5 283.96,-594.5 283.96,-594.5"/>
<polygon fill="black" stroke="black" points="283.96,-591 273.96,-594.5 283.96,-598 283.96,-591"/>
</g>
<!-- legend_$message_edge_src -->
<g id="node16" class="node">
<title>legend_$message_edge_src</title>
<text text-anchor="middle" x="378.25" y="-624.45" font-family="Times,serif" font-size="14.00">message</text>
</g>
<!-- legend_$message_edge_dst -->
<g id="node17" class="node">
<title>legend_$message_edge_dst</title>
<text text-anchor="middle" x="270.75" y="-624.45" font-family="Times,serif" font-size="14.00"> </text>
</g>
<!-- legend_$message_edge_src&#45;&gt;legend_$message_edge_dst -->
<g id="edge22" class="edge">
<title>legend_$message_edge_src&#45;&gt;legend_$message_edge_dst</title>
<path fill="none" stroke="black" d="M355.19,-629.5C355.19,-631.5 284.06,-631.5 284.06,-629.5"/>
<path fill="none" stroke="none" d="M355.19,-629.5C355.19,-629.5 284.06,-629.5 284.06,-629.5"/>
<path fill="none" stroke="black" d="M355.19,-629.5C355.19,-627.5 284.06,-627.5 284.06,-629.5"/>
<polygon fill="black" stroke="black" points="284.06,-626 274.06,-629.5 284.06,-633 284.06,-626"/>
</g>
</g>
</svg>
