<?xml version="1.0" encoding="UTF-8" standalone="no"?>
<!DOCTYPE svg PUBLIC "-//W3C//DTD SVG 1.1//EN"
 "http://www.w3.org/Graphics/SVG/1.1/DTD/svg11.dtd">
<!-- Generated by graphviz version 10.0.1 (0)
 -->
<!-- Title: G Pages: 1 -->
<svg width="594px" height="683px"
 viewBox="0.00 0.00 593.50 682.50" xmlns="http://www.w3.org/2000/svg" xmlns:xlink="http://www.w3.org/1999/xlink">
<g id="graph0" class="graph" transform="scale(1 1) rotate(0) translate(4 678.5)">
<title>G</title>
<text text-anchor="middle" x="292.75" y="-7.2" font-family="Times,serif" font-size="14.00">Interrupt Paths in an AIA System</text>
<g id="clust1" class="cluster">
<title>main</title>
<polygon fill="none" stroke="none" points="8,-32.5 8,-566.5 577.5,-566.5 577.5,-32.5 8,-32.5"/>
</g>
<g id="clust2" class="cluster">
<title>aplic</title>
<polygon fill="#f8cecc" stroke="#b85450" points="161.25,-260.5 161.25,-535.5 254,-535.5 254,-260.5 161.25,-260.5"/>
<text text-anchor="middle" x="207.62" y="-518.2" font-family="Times,serif" font-size="14.00">APLIC</text>
</g>
<g id="clust3" class="cluster">
<title>imsic_hart_0</title>
<polygon fill="none" stroke="none" points="366.5,-40.5 366.5,-295.5 569,-295.5 569,-40.5 366.5,-40.5"/>
</g>
<g id="clust4" class="cluster">
<title>imsic_0</title>
<polygon fill="#f8cecc" stroke="#b85450" points="374.5,-48.5 374.5,-287.5 478.5,-287.5 478.5,-48.5 374.5,-48.5"/>
<text text-anchor="middle" x="426.5" y="-270.2" font-family="Times,serif" font-size="14.00">IMSIC 0</text>
</g>
<g id="clust5" class="cluster">
<title>imsic_hart__</title>
<polygon fill="none" stroke="none" points="366.5,-303.5 366.5,-558.5 569.5,-558.5 569.5,-303.5 366.5,-303.5"/>
</g>
<g id="clust6" class="cluster">
<title>imsic__</title>
<polygon fill="#f8cecc" stroke="#b85450" points="374.5,-311.5 374.5,-550.5 478.5,-550.5 478.5,-311.5 374.5,-311.5"/>
<text text-anchor="middle" x="426.5" y="-533.2" font-family="Times,serif" font-size="14.00">IMSIC ...</text>
</g>
<g id="clust7" class="cluster">
<title>legend</title>
<polygon fill="none" stroke="gray" points="38.12,-574.5 38.12,-666.5 217.5,-666.5 217.5,-574.5 38.12,-574.5"/>
<text text-anchor="middle" x="127.81" y="-649.2" font-family="Times,serif" font-size="14.00">Legend</text>
</g>
<!-- msi_device_0 -->
<g id="node1" class="node">
<title>msi_device_0</title>
<polygon fill="none" stroke="black" points="254.25,-142.5 161,-142.5 161,-106.5 254.25,-106.5 254.25,-142.5"/>
<text text-anchor="middle" x="207.62" y="-119.45" font-family="Times,serif" font-size="14.00">MSI Device 0</text>
</g>
<!-- bus_network -->
<g id="node9" class="node">
<title>bus_network</title>
<polygon fill="none" stroke="black" points="346.5,-551.5 292.5,-551.5 292.5,-47.5 346.5,-47.5 346.5,-551.5"/>
<text text-anchor="middle" x="319.5" y="-294.45" font-family="Times,serif" font-size="14.00">Bus</text>
</g>
<!-- msi_device_0&#45;&gt;bus_network -->
<g id="edge1" class="edge">
<title>msi_device_0&#45;&gt;bus_network</title>
<path fill="none" stroke="black" d="M254.75,-124.5C254.75,-122.5 280.7,-122.5 280.7,-124.5"/>
<path fill="none" stroke="none" d="M254.75,-124.5C254.75,-124.5 280.7,-124.5 280.7,-124.5"/>
<path fill="none" stroke="black" d="M254.75,-124.5C254.75,-126.5 280.7,-126.5 280.7,-124.5"/>
<polygon fill="black" stroke="black" points="280.7,-128 290.7,-124.5 280.7,-121 280.7,-128"/>
</g>
<!-- msi_device_1 -->
<g id="node2" class="node">
<title>msi_device_1</title>
<polygon fill="none" stroke="black" points="254.25,-196.5 161,-196.5 161,-160.5 254.25,-160.5 254.25,-196.5"/>
<text text-anchor="middle" x="207.62" y="-173.45" font-family="Times,serif" font-size="14.00">MSI Device 1</text>
</g>
<!-- msi_device_1&#45;&gt;bus_network -->
<g id="edge2" class="edge">
<title>msi_device_1&#45;&gt;bus_network</title>
<path fill="none" stroke="black" d="M254.75,-178.5C254.75,-176.5 280.7,-176.5 280.7,-178.5"/>
<path fill="none" stroke="none" d="M254.75,-178.5C254.75,-178.5 280.7,-178.5 280.7,-178.5"/>
<path fill="none" stroke="black" d="M254.75,-178.5C254.75,-180.5 280.7,-180.5 280.7,-178.5"/>
<polygon fill="black" stroke="black" points="280.7,-182 290.7,-178.5 280.7,-175 280.7,-182"/>
</g>
<!-- msi_device__ -->
<g id="node3" class="node">
<title>msi_device__</title>
<polygon fill="none" stroke="black" points="256.5,-250.5 158.75,-250.5 158.75,-214.5 256.5,-214.5 256.5,-250.5"/>
<text text-anchor="middle" x="207.62" y="-227.45" font-family="Times,serif" font-size="14.00">MSI Device ...</text>
</g>
<!-- msi_device__&#45;&gt;bus_network -->
<g id="edge3" class="edge">
<title>msi_device__&#45;&gt;bus_network</title>
<path fill="none" stroke="black" d="M256.7,-232.5C256.7,-230.5 280.77,-230.5 280.77,-232.5"/>
<path fill="none" stroke="none" d="M256.7,-232.5C256.7,-232.5 280.77,-232.5 280.77,-232.5"/>
<path fill="none" stroke="black" d="M256.7,-232.5C256.7,-234.5 280.77,-234.5 280.77,-232.5"/>
<polygon fill="black" stroke="black" points="280.77,-236 290.77,-232.5 280.77,-229 280.77,-236"/>
</g>
<!-- m_domain -->
<g id="node4" class="node">
<title>m_domain</title>
<polygon fill="none" stroke="black" points="246,-376.5 169.25,-376.5 169.25,-268.5 246,-268.5 246,-376.5"/>
<text text-anchor="middle" x="207.62" y="-317.45" font-family="Times,serif" font-size="14.00">M Domain</text>
</g>
<!-- s_domain -->
<g id="node5" class="node">
<title>s_domain</title>
<polygon fill="none" stroke="black" points="243.38,-502.5 171.88,-502.5 171.88,-394.5 243.38,-394.5 243.38,-502.5"/>
<text text-anchor="middle" x="207.62" y="-443.45" font-family="Times,serif" font-size="14.00">S Domain</text>
</g>
<!-- m_domain&#45;&gt;s_domain -->
<g id="edge7" class="edge">
<title>m_domain&#45;&gt;s_domain</title>
<path fill="none" stroke="black" d="M196.5,-376.67C196.5,-376.67 196.5,-382.87 196.5,-382.87"/>
<polygon fill="black" stroke="black" points="193,-382.87 196.5,-392.87 200,-382.87 193,-382.87"/>
</g>
<!-- m_domain&#45;&gt;s_domain -->
<g id="edge8" class="edge">
<title>m_domain&#45;&gt;s_domain</title>
<path fill="none" stroke="black" d="M220.5,-376.67C220.5,-376.67 220.5,-382.87 220.5,-382.87"/>
<polygon fill="black" stroke="black" points="217,-382.87 220.5,-392.87 224,-382.87 217,-382.87"/>
</g>
<!-- m_domain&#45;&gt;bus_network -->
<g id="edge4" class="edge">
<title>m_domain&#45;&gt;bus_network</title>
<path fill="none" stroke="black" d="M246.44,-322.5C246.44,-320.5 280.51,-320.5 280.51,-322.5"/>
<path fill="none" stroke="none" d="M246.44,-322.5C246.44,-322.5 280.51,-322.5 280.51,-322.5"/>
<path fill="none" stroke="black" d="M246.44,-322.5C246.44,-324.5 280.51,-324.5 280.51,-322.5"/>
<polygon fill="black" stroke="black" points="280.51,-326 290.51,-322.5 280.51,-319 280.51,-326"/>
</g>
<!-- s_domain&#45;&gt;bus_network -->
<g id="edge5" class="edge">
<title>s_domain&#45;&gt;bus_network</title>
<path fill="none" stroke="black" d="M243.64,-430.5C243.64,-428.5 280.56,-428.5 280.56,-430.5"/>
<path fill="none" stroke="none" d="M243.64,-430.5C243.64,-430.5 280.56,-430.5 280.56,-430.5"/>
<path fill="none" stroke="black" d="M243.64,-430.5C243.64,-432.5 280.56,-432.5 280.56,-430.5"/>
<polygon fill="black" stroke="black" points="280.56,-434 290.56,-430.5 280.56,-427 280.56,-434"/>
</g>
<!-- s_domain&#45;&gt;bus_network -->
<g id="edge6" class="edge">
<title>s_domain&#45;&gt;bus_network</title>
<path fill="none" stroke="black" d="M243.64,-466.5C243.64,-464.5 280.56,-464.5 280.56,-466.5"/>
<path fill="none" stroke="none" d="M243.64,-466.5C243.64,-466.5 280.56,-466.5 280.56,-466.5"/>
<path fill="none" stroke="black" d="M243.64,-466.5C243.64,-468.5 280.56,-468.5 280.56,-466.5"/>
<polygon fill="black" stroke="black" points="280.56,-470 290.56,-466.5 280.56,-463 280.56,-470"/>
</g>
<!-- wired_device_0 -->
<g id="node6" class="node">
<title>wired_device_0</title>
<polygon fill="none" stroke="black" points="120.5,-286.5 18.25,-286.5 18.25,-250.5 120.5,-250.5 120.5,-286.5"/>
<text text-anchor="middle" x="69.38" y="-263.45" font-family="Times,serif" font-size="14.00">Wired Device 0</text>
</g>
<!-- wired_device_0&#45;&gt;m_domain -->
<g id="edge9" class="edge">
<title>wired_device_0&#45;&gt;m_domain</title>
<path fill="none" stroke="black" d="M120.85,-277.5C120.85,-277.5 157.56,-277.5 157.56,-277.5"/>
<polygon fill="black" stroke="black" points="157.56,-281 167.56,-277.5 157.56,-274 157.56,-281"/>
</g>
<!-- wired_device_1 -->
<g id="node7" class="node">
<title>wired_device_1</title>
<polygon fill="none" stroke="black" points="120.5,-340.5 18.25,-340.5 18.25,-304.5 120.5,-304.5 120.5,-340.5"/>
<text text-anchor="middle" x="69.38" y="-317.45" font-family="Times,serif" font-size="14.00">Wired Device 1</text>
</g>
<!-- wired_device_1&#45;&gt;m_domain -->
<g id="edge10" class="edge">
<title>wired_device_1&#45;&gt;m_domain</title>
<path fill="none" stroke="black" d="M120.85,-322.5C120.85,-322.5 157.56,-322.5 157.56,-322.5"/>
<polygon fill="black" stroke="black" points="157.56,-326 167.56,-322.5 157.56,-319 157.56,-326"/>
</g>
<!-- wired_device__ -->
<g id="node8" class="node">
<title>wired_device__</title>
<polygon fill="none" stroke="black" points="122.75,-394.5 16,-394.5 16,-358.5 122.75,-358.5 122.75,-394.5"/>
<text text-anchor="middle" x="69.38" y="-371.45" font-family="Times,serif" font-size="14.00">Wired Device ...</text>
</g>
<!-- wired_device__&#45;&gt;m_domain -->
<g id="edge11" class="edge">
<title>wired_device__&#45;&gt;m_domain</title>
<path fill="none" stroke="black" d="M123.22,-367.5C123.22,-367.5 157.6,-367.5 157.6,-367.5"/>
<polygon fill="black" stroke="black" points="157.6,-371 167.6,-367.5 157.6,-364 157.6,-371"/>
</g>
<!-- imsic_0_mint_file -->
<g id="node10" class="node">
<title>imsic_0_mint_file</title>
<polygon fill="none" stroke="black" points="460.75,-92.5 392.25,-92.5 392.25,-56.5 460.75,-56.5 460.75,-92.5"/>
<text text-anchor="middle" x="426.5" y="-69.45" font-family="Times,serif" font-size="14.00">M IntFile</text>
</g>
<!-- bus_network&#45;&gt;imsic_0_mint_file -->
<g id="edge13" class="edge">
<title>bus_network&#45;&gt;imsic_0_mint_file</title>
<path fill="none" stroke="black" d="M346.78,-74.5C346.78,-72.5 380.46,-72.5 380.46,-74.5"/>
<path fill="none" stroke="none" d="M346.78,-74.5C346.78,-74.5 380.46,-74.5 380.46,-74.5"/>
<path fill="none" stroke="black" d="M346.78,-74.5C346.78,-76.5 380.46,-76.5 380.46,-74.5"/>
<polygon fill="black" stroke="black" points="380.46,-78 390.46,-74.5 380.46,-71 380.46,-78"/>
</g>
<!-- imsic_0_sint_file -->
<g id="node11" class="node">
<title>imsic_0_sint_file</title>
<polygon fill="none" stroke="black" points="458.12,-146.5 394.88,-146.5 394.88,-110.5 458.12,-110.5 458.12,-146.5"/>
<text text-anchor="middle" x="426.5" y="-123.45" font-family="Times,serif" font-size="14.00">S IntFile</text>
</g>
<!-- bus_network&#45;&gt;imsic_0_sint_file -->
<g id="edge15" class="edge">
<title>bus_network&#45;&gt;imsic_0_sint_file</title>
<path fill="none" stroke="black" d="M346.78,-128.5C346.78,-126.5 383.2,-126.5 383.2,-128.5"/>
<path fill="none" stroke="none" d="M346.78,-128.5C346.78,-128.5 383.2,-128.5 383.2,-128.5"/>
<path fill="none" stroke="black" d="M346.78,-128.5C346.78,-130.5 383.2,-130.5 383.2,-128.5"/>
<polygon fill="black" stroke="black" points="383.2,-132 393.2,-128.5 383.2,-125 383.2,-132"/>
</g>
<!-- imsic_0_vsint_file_0 -->
<g id="node12" class="node">
<title>imsic_0_vsint_file_0</title>
<polygon fill="none" stroke="black" points="468.25,-200.5 384.75,-200.5 384.75,-164.5 468.25,-164.5 468.25,-200.5"/>
<text text-anchor="middle" x="426.5" y="-177.45" font-family="Times,serif" font-size="14.00">VS IntFile 0</text>
</g>
<!-- bus_network&#45;&gt;imsic_0_vsint_file_0 -->
<g id="edge17" class="edge">
<title>bus_network&#45;&gt;imsic_0_vsint_file_0</title>
<path fill="none" stroke="black" d="M346.78,-182.5C346.78,-180.5 372.78,-180.5 372.78,-182.5"/>
<path fill="none" stroke="none" d="M346.78,-182.5C346.78,-182.5 372.78,-182.5 372.78,-182.5"/>
<path fill="none" stroke="black" d="M346.78,-182.5C346.78,-184.5 372.78,-184.5 372.78,-182.5"/>
<polygon fill="black" stroke="black" points="372.78,-186 382.78,-182.5 372.78,-179 372.78,-186"/>
</g>
<!-- imsic_0_vsint_file__ -->
<g id="node13" class="node">
<title>imsic_0_vsint_file__</title>
<polygon fill="none" stroke="black" points="470.5,-254.5 382.5,-254.5 382.5,-218.5 470.5,-218.5 470.5,-254.5"/>
<text text-anchor="middle" x="426.5" y="-231.45" font-family="Times,serif" font-size="14.00">VS IntFile ...</text>
</g>
<!-- bus_network&#45;&gt;imsic_0_vsint_file__ -->
<g id="edge19" class="edge">
<title>bus_network&#45;&gt;imsic_0_vsint_file__</title>
<path fill="none" stroke="black" d="M346.78,-236.5C346.78,-234.5 370.71,-234.5 370.71,-236.5"/>
<path fill="none" stroke="none" d="M346.78,-236.5C346.78,-236.5 370.71,-236.5 370.71,-236.5"/>
<path fill="none" stroke="black" d="M346.78,-236.5C346.78,-238.5 370.71,-238.5 370.71,-236.5"/>
<polygon fill="black" stroke="black" points="370.71,-240 380.71,-236.5 370.71,-233 370.71,-240"/>
</g>
<!-- imsic___mint_file -->
<g id="node15" class="node">
<title>imsic___mint_file</title>
<polygon fill="none" stroke="black" points="460.75,-355.5 392.25,-355.5 392.25,-319.5 460.75,-319.5 460.75,-355.5"/>
<text text-anchor="middle" x="426.5" y="-332.45" font-family="Times,serif" font-size="14.00">M IntFile</text>
</g>
<!-- bus_network&#45;&gt;imsic___mint_file -->
<g id="edge21" class="edge">
<title>bus_network&#45;&gt;imsic___mint_file</title>
<path fill="none" stroke="black" d="M346.78,-337.5C346.78,-335.5 380.46,-335.5 380.46,-337.5"/>
<path fill="none" stroke="none" d="M346.78,-337.5C346.78,-337.5 380.46,-337.5 380.46,-337.5"/>
<path fill="none" stroke="black" d="M346.78,-337.5C346.78,-339.5 380.46,-339.5 380.46,-337.5"/>
<polygon fill="black" stroke="black" points="380.46,-341 390.46,-337.5 380.46,-334 380.46,-341"/>
</g>
<!-- imsic___sint_file -->
<g id="node16" class="node">
<title>imsic___sint_file</title>
<polygon fill="none" stroke="black" points="458.12,-409.5 394.88,-409.5 394.88,-373.5 458.12,-373.5 458.12,-409.5"/>
<text text-anchor="middle" x="426.5" y="-386.45" font-family="Times,serif" font-size="14.00">S IntFile</text>
</g>
<!-- bus_network&#45;&gt;imsic___sint_file -->
<g id="edge23" class="edge">
<title>bus_network&#45;&gt;imsic___sint_file</title>
<path fill="none" stroke="black" d="M346.78,-391.5C346.78,-389.5 383.2,-389.5 383.2,-391.5"/>
<path fill="none" stroke="none" d="M346.78,-391.5C346.78,-391.5 383.2,-391.5 383.2,-391.5"/>
<path fill="none" stroke="black" d="M346.78,-391.5C346.78,-393.5 383.2,-393.5 383.2,-391.5"/>
<polygon fill="black" stroke="black" points="383.2,-395 393.2,-391.5 383.2,-388 383.2,-395"/>
</g>
<!-- imsic___vsint_file_0 -->
<g id="node17" class="node">
<title>imsic___vsint_file_0</title>
<polygon fill="none" stroke="black" points="468.25,-463.5 384.75,-463.5 384.75,-427.5 468.25,-427.5 468.25,-463.5"/>
<text text-anchor="middle" x="426.5" y="-440.45" font-family="Times,serif" font-size="14.00">VS IntFile 0</text>
</g>
<!-- bus_network&#45;&gt;imsic___vsint_file_0 -->
<g id="edge25" class="edge">
<title>bus_network&#45;&gt;imsic___vsint_file_0</title>
<path fill="none" stroke="black" d="M346.78,-445.5C346.78,-443.5 372.78,-443.5 372.78,-445.5"/>
<path fill="none" stroke="none" d="M346.78,-445.5C346.78,-445.5 372.78,-445.5 372.78,-445.5"/>
<path fill="none" stroke="black" d="M346.78,-445.5C346.78,-447.5 372.78,-447.5 372.78,-445.5"/>
<polygon fill="black" stroke="black" points="372.78,-449 382.78,-445.5 372.78,-442 372.78,-449"/>
</g>
<!-- imsic___vsint_file__ -->
<g id="node18" class="node">
<title>imsic___vsint_file__</title>
<polygon fill="none" stroke="black" points="470.5,-517.5 382.5,-517.5 382.5,-481.5 470.5,-481.5 470.5,-517.5"/>
<text text-anchor="middle" x="426.5" y="-494.45" font-family="Times,serif" font-size="14.00">VS IntFile ...</text>
</g>
<!-- bus_network&#45;&gt;imsic___vsint_file__ -->
<g id="edge27" class="edge">
<title>bus_network&#45;&gt;imsic___vsint_file__</title>
<path fill="none" stroke="black" d="M346.78,-499.5C346.78,-497.5 370.71,-497.5 370.71,-499.5"/>
<path fill="none" stroke="none" d="M346.78,-499.5C346.78,-499.5 370.71,-499.5 370.71,-499.5"/>
<path fill="none" stroke="black" d="M346.78,-499.5C346.78,-501.5 370.71,-501.5 370.71,-499.5"/>
<polygon fill="black" stroke="black" points="370.71,-503 380.71,-499.5 370.71,-496 370.71,-503"/>
</g>
<!-- hart_0 -->
<g id="node14" class="node">
<title>hart_0</title>
<polygon fill="none" stroke="black" points="561,-282.7 507,-282.7 507,-52.3 561,-52.3 561,-282.7"/>
<text text-anchor="middle" x="534" y="-162.45" font-family="Times,serif" font-size="14.00">Hart 0</text>
</g>
<!-- imsic_0_mint_file&#45;&gt;hart_0 -->
<g id="edge12" class="edge">
<title>imsic_0_mint_file&#45;&gt;hart_0</title>
<path fill="none" stroke="black" d="M461.11,-74.5C461.11,-74.5 495.1,-74.5 495.1,-74.5"/>
<polygon fill="black" stroke="black" points="495.1,-78 505.1,-74.5 495.1,-71 495.1,-78"/>
</g>
<!-- imsic_0_sint_file&#45;&gt;hart_0 -->
<g id="edge14" class="edge">
<title>imsic_0_sint_file&#45;&gt;hart_0</title>
<path fill="none" stroke="black" d="M458.46,-128.5C458.46,-128.5 495.19,-128.5 495.19,-128.5"/>
<polygon fill="black" stroke="black" points="495.19,-132 505.19,-128.5 495.19,-125 495.19,-132"/>
</g>
<!-- imsic_0_vsint_file_0&#45;&gt;hart_0 -->
<g id="edge16" class="edge">
<title>imsic_0_vsint_file_0&#45;&gt;hart_0</title>
<path fill="none" stroke="black" d="M468.68,-182.5C468.68,-182.5 495.29,-182.5 495.29,-182.5"/>
<polygon fill="black" stroke="black" points="495.29,-186 505.29,-182.5 495.29,-179 495.29,-186"/>
</g>
<!-- imsic_0_vsint_file__&#45;&gt;hart_0 -->
<g id="edge18" class="edge">
<title>imsic_0_vsint_file__&#45;&gt;hart_0</title>
<path fill="none" stroke="black" d="M470.85,-236.5C470.85,-236.5 495.17,-236.5 495.17,-236.5"/>
<polygon fill="black" stroke="black" points="495.17,-240 505.17,-236.5 495.17,-233 495.17,-240"/>
</g>
<!-- hart__ -->
<g id="node19" class="node">
<title>hart__</title>
<polygon fill="none" stroke="black" points="561.5,-545.7 506.5,-545.7 506.5,-315.3 561.5,-315.3 561.5,-545.7"/>
<text text-anchor="middle" x="534" y="-425.45" font-family="Times,serif" font-size="14.00">Hart ...</text>
</g>
<!-- imsic___mint_file&#45;&gt;hart__ -->
<g id="edge20" class="edge">
<title>imsic___mint_file&#45;&gt;hart__</title>
<path fill="none" stroke="black" d="M461.11,-337.5C461.11,-337.5 494.75,-337.5 494.75,-337.5"/>
<polygon fill="black" stroke="black" points="494.75,-341 504.75,-337.5 494.75,-334 494.75,-341"/>
</g>
<!-- imsic___sint_file&#45;&gt;hart__ -->
<g id="edge22" class="edge">
<title>imsic___sint_file&#45;&gt;hart__</title>
<path fill="none" stroke="black" d="M458.46,-391.5C458.46,-391.5 494.83,-391.5 494.83,-391.5"/>
<polygon fill="black" stroke="black" points="494.83,-395 504.83,-391.5 494.83,-388 494.83,-395"/>
</g>
<!-- imsic___vsint_file_0&#45;&gt;hart__ -->
<g id="edge24" class="edge">
<title>imsic___vsint_file_0&#45;&gt;hart__</title>
<path fill="none" stroke="black" d="M468.68,-445.5C468.68,-445.5 494.65,-445.5 494.65,-445.5"/>
<polygon fill="black" stroke="black" points="494.65,-449 504.65,-445.5 494.65,-442 494.65,-449"/>
</g>
<!-- imsic___vsint_file__&#45;&gt;hart__ -->
<g id="edge26" class="edge">
<title>imsic___vsint_file__&#45;&gt;hart__</title>
<path fill="none" stroke="black" d="M470.85,-499.5C470.85,-499.5 494.54,-499.5 494.54,-499.5"/>
<polygon fill="black" stroke="black" points="494.54,-503 504.54,-499.5 494.54,-496 494.54,-503"/>
</g>
<!-- legend_$wire_edge_src -->
<g id="node20" class="node">
<title>legend_$wire_edge_src</title>
<text text-anchor="middle" x="69.38" y="-585.45" font-family="Times,serif" font-size="14.00">wire</text>
</g>
<!-- legend_$wire_edge_dst -->
<g id="node21" class="node">
<title>legend_$wire_edge_dst</title>
<text text-anchor="middle" x="207.62" y="-585.45" font-family="Times,serif" font-size="14.00"> </text>
</g>
<!-- legend_$wire_edge_src&#45;&gt;legend_$wire_edge_dst -->
<g id="edge28" class="edge">
<title>legend_$wire_edge_src&#45;&gt;legend_$wire_edge_dst</title>
<path fill="none" stroke="black" d="M81.16,-590.5C81.16,-590.5 194.48,-590.5 194.48,-590.5"/>
<polygon fill="black" stroke="black" points="194.48,-594 204.48,-590.5 194.48,-587 194.48,-594"/>
</g>
<!-- legend_$message_edge_src -->
<g id="node22" class="node">
<title>legend_$message_edge_src</title>
<text text-anchor="middle" x="69.38" y="-620.45" font-family="Times,serif" font-size="14.00">message</text>
</g>
<!-- legend_$message_edge_dst -->
<g id="node23" class="node">
<title>legend_$message_edge_dst</title>
<text text-anchor="middle" x="207.62" y="-620.45" font-family="Times,serif" font-size="14.00"> </text>
</g>
<!-- legend_$message_edge_src&#45;&gt;legend_$message_edge_dst -->
<g id="edge29" class="edge">
<title>legend_$message_edge_src&#45;&gt;legend_$message_edge_dst</title>
<path fill="none" stroke="black" d="M92.51,-625.5C92.51,-623.5 194.5,-623.5 194.5,-625.5"/>
<path fill="none" stroke="none" d="M92.51,-625.5C92.51,-625.5 194.5,-625.5 194.5,-625.5"/>
<path fill="none" stroke="black" d="M92.51,-625.5C92.51,-627.5 194.5,-627.5 194.5,-625.5"/>
<polygon fill="black" stroke="black" points="194.5,-629 204.5,-625.5 194.5,-622 194.5,-629"/>
</g>
</g>
</svg>
