<?xml version="1.0" encoding="UTF-8" standalone="no"?>
<!DOCTYPE svg PUBLIC "-//W3C//DTD SVG 1.1//EN"
 "http://www.w3.org/Graphics/SVG/1.1/DTD/svg11.dtd">
<!-- Generated by graphviz version 10.0.1 (0)
 -->
<!-- Title: G Pages: 1 -->
<svg width="730px" height="839px"
 viewBox="0.00 0.00 730.00 839.38" xmlns="http://www.w3.org/2000/svg" xmlns:xlink="http://www.w3.org/1999/xlink">
<g id="graph0" class="graph" transform="scale(1 1) rotate(0) translate(4 835.38)">
<title>G</title>
<text text-anchor="middle" x="361" y="-7.2" font-family="Times,serif" font-size="14.00">Example</text>
<g id="clust1" class="cluster">
<title>imsic00</title>
<polygon fill="#f8cecc" stroke="#b85450" points="26,-130.94 26,-305.94 184,-305.94 184,-130.94 26,-130.94"/>
<text text-anchor="middle" x="105" y="-288.64" font-family="Times,serif" font-size="14.00">imsic00</text>
<text text-anchor="middle" x="105" y="-272.14" font-family="Times,serif" font-size="14.00">TLIMSIC</text>
</g>
<g id="clust2" class="cluster">
<title>imsic01</title>
<polygon fill="#f8cecc" stroke="#b85450" points="196,-130.94 196,-305.94 354,-305.94 354,-130.94 196,-130.94"/>
<text text-anchor="middle" x="275" y="-288.64" font-family="Times,serif" font-size="14.00">imsic01</text>
<text text-anchor="middle" x="275" y="-272.14" font-family="Times,serif" font-size="14.00">TLIMSIC</text>
</g>
<g id="clust3" class="cluster">
<title>imsic10</title>
<polygon fill="#f8cecc" stroke="#b85450" points="367,-130.94 367,-305.94 525,-305.94 525,-130.94 367,-130.94"/>
<text text-anchor="middle" x="446" y="-288.64" font-family="Times,serif" font-size="14.00">imsic10</text>
<text text-anchor="middle" x="446" y="-272.14" font-family="Times,serif" font-size="14.00">TLIMSIC</text>
</g>
<g id="clust4" class="cluster">
<title>imsic11</title>
<polygon fill="#f8cecc" stroke="#b85450" points="534,-130.94 534,-305.94 692,-305.94 692,-130.94 534,-130.94"/>
<text text-anchor="middle" x="613" y="-288.64" font-family="Times,serif" font-size="14.00">imsic11</text>
<text text-anchor="middle" x="613" y="-272.14" font-family="Times,serif" font-size="14.00">TLIMSIC</text>
</g>
<g id="clust5" class="cluster">
<title>aplic</title>
<polygon fill="#f8cecc" stroke="#b85450" points="348,-492.94 348,-667.94 550,-667.94 550,-492.94 348,-492.94"/>
<text text-anchor="middle" x="449" y="-650.64" font-family="Times,serif" font-size="14.00">aplic</text>
<text text-anchor="middle" x="449" y="-634.14" font-family="Times,serif" font-size="14.00">TLAPLIC</text>
</g>
<!-- toAIA -->
<g id="node1" class="node">
<title>toAIA</title>
<polygon fill="none" stroke="black" points="450.38,-793.94 355.62,-793.94 355.62,-752.94 450.38,-752.94 450.38,-793.94"/>
<text text-anchor="middle" x="403" y="-776.64" font-family="Times,serif" font-size="14.00">toAIA</text>
<text text-anchor="middle" x="403" y="-760.14" font-family="Times,serif" font-size="14.00">TLClientNode</text>
</g>
<!-- toAIA_xbar -->
<g id="node2" class="node">
<title>toAIA_xbar</title>
<polygon fill="none" stroke="black" points="508,-716.94 148,-716.94 148,-675.94 508,-675.94 508,-716.94"/>
<text text-anchor="middle" x="328" y="-699.64" font-family="Times,serif" font-size="14.00">toAIA_xbar</text>
<text text-anchor="middle" x="328" y="-683.14" font-family="Times,serif" font-size="14.00">TLXbar</text>
</g>
<!-- toAIA&#45;&gt;toAIA_xbar -->
<g id="edge1" class="edge">
<title>toAIA&#45;&gt;toAIA_xbar</title>
<path fill="none" stroke="black" d="M403,-752.81C403,-752.81 403,-728.91 403,-728.91"/>
<polygon fill="black" stroke="black" points="406.5,-728.91 403,-718.91 399.5,-728.91 406.5,-728.91"/>
</g>
<!-- imsics_fromMem_xbar -->
<g id="node3" class="node">
<title>imsics_fromMem_xbar</title>
<polygon fill="none" stroke="black" points="720,-464.94 0,-464.94 0,-423.94 720,-423.94 720,-464.94"/>
<text text-anchor="middle" x="360" y="-447.64" font-family="Times,serif" font-size="14.00">imsics_fromMem_xbar</text>
<text text-anchor="middle" x="360" y="-431.14" font-family="Times,serif" font-size="14.00">TLXbar</text>
</g>
<!-- toAIA_xbar&#45;&gt;imsics_fromMem_xbar -->
<g id="edge2" class="edge">
<title>toAIA_xbar&#45;&gt;imsics_fromMem_xbar</title>
<path fill="none" stroke="black" d="M252.19,-675.82C252.19,-675.82 252.19,-476.86 252.19,-476.86"/>
<polygon fill="black" stroke="black" points="255.69,-476.86 252.19,-466.86 248.69,-476.86 255.69,-476.86"/>
</g>
<!-- aplic_fromCPU -->
<g id="node28" class="node">
<title>aplic_fromCPU</title>
<polygon fill="none" stroke="black" points="425.62,-618.94 356.38,-618.94 356.38,-577.94 425.62,-577.94 425.62,-618.94"/>
<text text-anchor="middle" x="391" y="-601.64" font-family="Times,serif" font-size="14.00">fromCPU</text>
<text text-anchor="middle" x="391" y="-585.14" font-family="Times,serif" font-size="14.00">TLXbar</text>
</g>
<!-- toAIA_xbar&#45;&gt;aplic_fromCPU -->
<g id="edge29" class="edge">
<title>toAIA_xbar&#45;&gt;aplic_fromCPU</title>
<path fill="none" stroke="black" d="M391,-675.66C391,-675.66 391,-630.71 391,-630.71"/>
<polygon fill="black" stroke="black" points="394.5,-630.71 391,-620.71 387.5,-630.71 394.5,-630.71"/>
</g>
<!-- map00 -->
<g id="node7" class="node">
<title>map00</title>
<polygon fill="none" stroke="black" points="198.25,-387.94 63.75,-387.94 63.75,-313.94 198.25,-313.94 198.25,-387.94"/>
<text text-anchor="middle" x="131" y="-370.64" font-family="Times,serif" font-size="14.00">[mAddr00,sgAddr00]</text>
<text text-anchor="middle" x="131" y="-354.14" font-family="Times,serif" font-size="14.00">map00</text>
<text text-anchor="middle" x="131" y="-337.64" font-family="Times,serif" font-size="14.00">TLMap</text>
<text text-anchor="middle" x="131" y="-321.14" font-family="Times,serif" font-size="14.00">[0x0,0x10000]</text>
</g>
<!-- imsics_fromMem_xbar&#45;&gt;map00 -->
<g id="edge5" class="edge">
<title>imsics_fromMem_xbar&#45;&gt;map00</title>
<path fill="none" stroke="black" d="M131,-423.69C131,-423.69 131,-399.71 131,-399.71"/>
<polygon fill="black" stroke="black" points="134.5,-399.71 131,-389.71 127.5,-399.71 134.5,-399.71"/>
</g>
<!-- map01 -->
<g id="node11" class="node">
<title>map01</title>
<polygon fill="none" stroke="black" points="351.25,-387.94 216.75,-387.94 216.75,-313.94 351.25,-313.94 351.25,-387.94"/>
<text text-anchor="middle" x="284" y="-370.64" font-family="Times,serif" font-size="14.00">[mAddr01,sgAddr01]</text>
<text text-anchor="middle" x="284" y="-354.14" font-family="Times,serif" font-size="14.00">map11</text>
<text text-anchor="middle" x="284" y="-337.64" font-family="Times,serif" font-size="14.00">TLMap</text>
<text text-anchor="middle" x="284" y="-321.14" font-family="Times,serif" font-size="14.00">[0x0,0x10000]</text>
</g>
<!-- imsics_fromMem_xbar&#45;&gt;map01 -->
<g id="edge9" class="edge">
<title>imsics_fromMem_xbar&#45;&gt;map01</title>
<path fill="none" stroke="black" d="M284,-423.69C284,-423.69 284,-399.71 284,-399.71"/>
<polygon fill="black" stroke="black" points="287.5,-399.71 284,-389.71 280.5,-399.71 287.5,-399.71"/>
</g>
<!-- map10 -->
<g id="node15" class="node">
<title>map10</title>
<polygon fill="none" stroke="black" points="504.25,-387.94 369.75,-387.94 369.75,-313.94 504.25,-313.94 504.25,-387.94"/>
<text text-anchor="middle" x="437" y="-370.64" font-family="Times,serif" font-size="14.00">[mAddr10,sgAddr10]</text>
<text text-anchor="middle" x="437" y="-354.14" font-family="Times,serif" font-size="14.00">map00</text>
<text text-anchor="middle" x="437" y="-337.64" font-family="Times,serif" font-size="14.00">TLMap</text>
<text text-anchor="middle" x="437" y="-321.14" font-family="Times,serif" font-size="14.00">[0x0,0x10000]</text>
</g>
<!-- imsics_fromMem_xbar&#45;&gt;map10 -->
<g id="edge13" class="edge">
<title>imsics_fromMem_xbar&#45;&gt;map10</title>
<path fill="none" stroke="black" d="M437,-423.69C437,-423.69 437,-399.71 437,-399.71"/>
<polygon fill="black" stroke="black" points="440.5,-399.71 437,-389.71 433.5,-399.71 440.5,-399.71"/>
</g>
<!-- map11 -->
<g id="node19" class="node">
<title>map11</title>
<polygon fill="none" stroke="black" points="657.25,-387.94 522.75,-387.94 522.75,-313.94 657.25,-313.94 657.25,-387.94"/>
<text text-anchor="middle" x="590" y="-370.64" font-family="Times,serif" font-size="14.00">[mAddr11,sgAddr11]</text>
<text text-anchor="middle" x="590" y="-354.14" font-family="Times,serif" font-size="14.00">map11</text>
<text text-anchor="middle" x="590" y="-337.64" font-family="Times,serif" font-size="14.00">TLMap</text>
<text text-anchor="middle" x="590" y="-321.14" font-family="Times,serif" font-size="14.00">[0x0,0x10000]</text>
</g>
<!-- imsics_fromMem_xbar&#45;&gt;map11 -->
<g id="edge17" class="edge">
<title>imsics_fromMem_xbar&#45;&gt;map11</title>
<path fill="none" stroke="black" d="M590,-423.69C590,-423.69 590,-399.71 590,-399.71"/>
<polygon fill="black" stroke="black" points="593.5,-399.71 590,-389.71 586.5,-399.71 593.5,-399.71"/>
</g>
<!-- imsic00_fromMem -->
<g id="node4" class="node">
<title>imsic00_fromMem</title>
<polygon fill="none" stroke="black" points="167.5,-256.94 94.5,-256.94 94.5,-215.94 167.5,-215.94 167.5,-256.94"/>
<text text-anchor="middle" x="131" y="-239.64" font-family="Times,serif" font-size="14.00">fromMem</text>
<text text-anchor="middle" x="131" y="-223.14" font-family="Times,serif" font-size="14.00">TLXbar</text>
</g>
<!-- imsic00_fromCSR -->
<g id="node5" class="node">
<title>imsic00_fromCSR</title>
<polygon fill="none" stroke="black" points="102.25,-179.94 33.75,-179.94 33.75,-138.94 102.25,-138.94 102.25,-179.94"/>
<text text-anchor="middle" x="68" y="-162.64" font-family="Times,serif" font-size="14.00">fromCSR</text>
<text text-anchor="middle" x="68" y="-146.14" font-family="Times,serif" font-size="14.00">Bundle</text>
</g>
<!-- imsic00_fromMem&#45;&gt;imsic00_fromCSR -->
<g id="edge3" class="edge">
<title>imsic00_fromMem&#45;&gt;imsic00_fromCSR</title>
<path fill="none" stroke="none" d="M98.38,-215.81C98.38,-215.81 98.38,-191.91 98.38,-191.91"/>
<polygon fill="none" stroke="none" points="101.88,-191.91 98.38,-181.91 94.88,-191.91 101.88,-191.91"/>
</g>
<!-- imsic00_toCSR -->
<g id="node6" class="node">
<title>imsic00_toCSR</title>
<polygon fill="none" stroke="black" points="175.5,-179.94 120.5,-179.94 120.5,-138.94 175.5,-138.94 175.5,-179.94"/>
<text text-anchor="middle" x="148" y="-162.64" font-family="Times,serif" font-size="14.00">toCSR</text>
<text text-anchor="middle" x="148" y="-146.14" font-family="Times,serif" font-size="14.00">Bundle</text>
</g>
<!-- imsic00_fromMem&#45;&gt;imsic00_toCSR -->
<g id="edge4" class="edge">
<title>imsic00_fromMem&#45;&gt;imsic00_toCSR</title>
<path fill="none" stroke="none" d="M144,-215.81C144,-215.81 144,-191.91 144,-191.91"/>
<polygon fill="none" stroke="none" points="147.5,-191.91 144,-181.91 140.5,-191.91 147.5,-191.91"/>
</g>
<!-- fromCSR0 -->
<g id="node21" class="node">
<title>fromCSR0</title>
<polygon fill="none" stroke="black" points="102.62,-102.94 27.38,-102.94 27.38,-61.94 102.62,-61.94 102.62,-102.94"/>
<text text-anchor="middle" x="65" y="-85.64" font-family="Times,serif" font-size="14.00">fromCSR0</text>
<text text-anchor="middle" x="65" y="-69.14" font-family="Times,serif" font-size="14.00">Bundle</text>
</g>
<!-- imsic00_fromCSR&#45;&gt;fromCSR0 -->
<g id="edge20" class="edge">
<title>imsic00_fromCSR&#45;&gt;fromCSR0</title>
<path fill="none" stroke="black" d="M68,-127.29C68,-127.29 68,-103.4 68,-103.4"/>
<polygon fill="black" stroke="black" points="64.5,-127.29 68,-137.29 71.5,-127.29 64.5,-127.29"/>
</g>
<!-- toCSR0 -->
<g id="node20" class="node">
<title>toCSR0</title>
<polygon fill="none" stroke="black" points="179.38,-102.94 120.62,-102.94 120.62,-61.94 179.38,-61.94 179.38,-102.94"/>
<text text-anchor="middle" x="150" y="-85.64" font-family="Times,serif" font-size="14.00">toCSR0</text>
<text text-anchor="middle" x="150" y="-69.14" font-family="Times,serif" font-size="14.00">Bundle</text>
</g>
<!-- imsic00_toCSR&#45;&gt;toCSR0 -->
<g id="edge19" class="edge">
<title>imsic00_toCSR&#45;&gt;toCSR0</title>
<path fill="none" stroke="black" d="M148.06,-138.81C148.06,-138.81 148.06,-114.91 148.06,-114.91"/>
<polygon fill="black" stroke="black" points="151.56,-114.91 148.06,-104.91 144.56,-114.91 151.56,-114.91"/>
</g>
<!-- map00&#45;&gt;imsic00_fromMem -->
<g id="edge6" class="edge">
<title>map00&#45;&gt;imsic00_fromMem</title>
<path fill="none" stroke="black" d="M131,-313.45C131,-313.45 131,-268.82 131,-268.82"/>
<polygon fill="black" stroke="black" points="134.5,-268.82 131,-258.82 127.5,-268.82 134.5,-268.82"/>
</g>
<!-- imsic01_fromMem -->
<g id="node8" class="node">
<title>imsic01_fromMem</title>
<polygon fill="none" stroke="black" points="320.5,-256.94 247.5,-256.94 247.5,-215.94 320.5,-215.94 320.5,-256.94"/>
<text text-anchor="middle" x="284" y="-239.64" font-family="Times,serif" font-size="14.00">fromMem</text>
<text text-anchor="middle" x="284" y="-223.14" font-family="Times,serif" font-size="14.00">TLXbar</text>
</g>
<!-- imsic01_fromCSR -->
<g id="node9" class="node">
<title>imsic01_fromCSR</title>
<polygon fill="none" stroke="black" points="272.25,-179.94 203.75,-179.94 203.75,-138.94 272.25,-138.94 272.25,-179.94"/>
<text text-anchor="middle" x="238" y="-162.64" font-family="Times,serif" font-size="14.00">fromCSR</text>
<text text-anchor="middle" x="238" y="-146.14" font-family="Times,serif" font-size="14.00">Bundle</text>
</g>
<!-- imsic01_fromMem&#45;&gt;imsic01_fromCSR -->
<g id="edge7" class="edge">
<title>imsic01_fromMem&#45;&gt;imsic01_fromCSR</title>
<path fill="none" stroke="none" d="M259.88,-215.81C259.88,-215.81 259.88,-191.91 259.88,-191.91"/>
<polygon fill="none" stroke="none" points="263.38,-191.91 259.88,-181.91 256.38,-191.91 263.38,-191.91"/>
</g>
<!-- imsic01_toCSR -->
<g id="node10" class="node">
<title>imsic01_toCSR</title>
<polygon fill="none" stroke="black" points="345.5,-179.94 290.5,-179.94 290.5,-138.94 345.5,-138.94 345.5,-179.94"/>
<text text-anchor="middle" x="318" y="-162.64" font-family="Times,serif" font-size="14.00">toCSR</text>
<text text-anchor="middle" x="318" y="-146.14" font-family="Times,serif" font-size="14.00">Bundle</text>
</g>
<!-- imsic01_fromMem&#45;&gt;imsic01_toCSR -->
<g id="edge8" class="edge">
<title>imsic01_fromMem&#45;&gt;imsic01_toCSR</title>
<path fill="none" stroke="none" d="M305.5,-215.81C305.5,-215.81 305.5,-191.91 305.5,-191.91"/>
<polygon fill="none" stroke="none" points="309,-191.91 305.5,-181.91 302,-191.91 309,-191.91"/>
</g>
<!-- fromCSR1 -->
<g id="node23" class="node">
<title>fromCSR1</title>
<polygon fill="none" stroke="black" points="272.62,-102.94 197.38,-102.94 197.38,-61.94 272.62,-61.94 272.62,-102.94"/>
<text text-anchor="middle" x="235" y="-85.64" font-family="Times,serif" font-size="14.00">fromCSR1</text>
<text text-anchor="middle" x="235" y="-69.14" font-family="Times,serif" font-size="14.00">Bundle</text>
</g>
<!-- imsic01_fromCSR&#45;&gt;fromCSR1 -->
<g id="edge22" class="edge">
<title>imsic01_fromCSR&#45;&gt;fromCSR1</title>
<path fill="none" stroke="black" d="M238,-127.29C238,-127.29 238,-103.4 238,-103.4"/>
<polygon fill="black" stroke="black" points="234.5,-127.29 238,-137.29 241.5,-127.29 234.5,-127.29"/>
</g>
<!-- toCSR1 -->
<g id="node22" class="node">
<title>toCSR1</title>
<polygon fill="none" stroke="black" points="349.38,-102.94 290.62,-102.94 290.62,-61.94 349.38,-61.94 349.38,-102.94"/>
<text text-anchor="middle" x="320" y="-85.64" font-family="Times,serif" font-size="14.00">toCSR1</text>
<text text-anchor="middle" x="320" y="-69.14" font-family="Times,serif" font-size="14.00">Bundle</text>
</g>
<!-- imsic01_toCSR&#45;&gt;toCSR1 -->
<g id="edge21" class="edge">
<title>imsic01_toCSR&#45;&gt;toCSR1</title>
<path fill="none" stroke="black" d="M318.06,-138.81C318.06,-138.81 318.06,-114.91 318.06,-114.91"/>
<polygon fill="black" stroke="black" points="321.56,-114.91 318.06,-104.91 314.56,-114.91 321.56,-114.91"/>
</g>
<!-- map01&#45;&gt;imsic01_fromMem -->
<g id="edge10" class="edge">
<title>map01&#45;&gt;imsic01_fromMem</title>
<path fill="none" stroke="black" d="M284,-313.45C284,-313.45 284,-268.82 284,-268.82"/>
<polygon fill="black" stroke="black" points="287.5,-268.82 284,-258.82 280.5,-268.82 287.5,-268.82"/>
</g>
<!-- imsic10_fromMem -->
<g id="node12" class="node">
<title>imsic10_fromMem</title>
<polygon fill="none" stroke="black" points="473.5,-256.94 400.5,-256.94 400.5,-215.94 473.5,-215.94 473.5,-256.94"/>
<text text-anchor="middle" x="437" y="-239.64" font-family="Times,serif" font-size="14.00">fromMem</text>
<text text-anchor="middle" x="437" y="-223.14" font-family="Times,serif" font-size="14.00">TLXbar</text>
</g>
<!-- imsic10_fromCSR -->
<g id="node13" class="node">
<title>imsic10_fromCSR</title>
<polygon fill="none" stroke="black" points="443.25,-179.94 374.75,-179.94 374.75,-138.94 443.25,-138.94 443.25,-179.94"/>
<text text-anchor="middle" x="409" y="-162.64" font-family="Times,serif" font-size="14.00">fromCSR</text>
<text text-anchor="middle" x="409" y="-146.14" font-family="Times,serif" font-size="14.00">Bundle</text>
</g>
<!-- imsic10_fromMem&#45;&gt;imsic10_fromCSR -->
<g id="edge11" class="edge">
<title>imsic10_fromMem&#45;&gt;imsic10_fromCSR</title>
<path fill="none" stroke="none" d="M421.88,-215.81C421.88,-215.81 421.88,-191.91 421.88,-191.91"/>
<polygon fill="none" stroke="none" points="425.38,-191.91 421.88,-181.91 418.38,-191.91 425.38,-191.91"/>
</g>
<!-- imsic10_toCSR -->
<g id="node14" class="node">
<title>imsic10_toCSR</title>
<polygon fill="none" stroke="black" points="516.5,-179.94 461.5,-179.94 461.5,-138.94 516.5,-138.94 516.5,-179.94"/>
<text text-anchor="middle" x="489" y="-162.64" font-family="Times,serif" font-size="14.00">toCSR</text>
<text text-anchor="middle" x="489" y="-146.14" font-family="Times,serif" font-size="14.00">Bundle</text>
</g>
<!-- imsic10_fromMem&#45;&gt;imsic10_toCSR -->
<g id="edge12" class="edge">
<title>imsic10_fromMem&#45;&gt;imsic10_toCSR</title>
<path fill="none" stroke="none" d="M467.5,-215.81C467.5,-215.81 467.5,-191.91 467.5,-191.91"/>
<polygon fill="none" stroke="none" points="471,-191.91 467.5,-181.91 464,-191.91 471,-191.91"/>
</g>
<!-- fromCSR2 -->
<g id="node25" class="node">
<title>fromCSR2</title>
<polygon fill="none" stroke="black" points="442.62,-102.94 367.38,-102.94 367.38,-61.94 442.62,-61.94 442.62,-102.94"/>
<text text-anchor="middle" x="405" y="-85.64" font-family="Times,serif" font-size="14.00">fromCSR2</text>
<text text-anchor="middle" x="405" y="-69.14" font-family="Times,serif" font-size="14.00">Bundle</text>
</g>
<!-- imsic10_fromCSR&#45;&gt;fromCSR2 -->
<g id="edge24" class="edge">
<title>imsic10_fromCSR&#45;&gt;fromCSR2</title>
<path fill="none" stroke="black" d="M408.69,-127.29C408.69,-127.29 408.69,-103.4 408.69,-103.4"/>
<polygon fill="black" stroke="black" points="405.19,-127.29 408.69,-137.29 412.19,-127.29 405.19,-127.29"/>
</g>
<!-- toCSR2 -->
<g id="node24" class="node">
<title>toCSR2</title>
<polygon fill="none" stroke="black" points="519.38,-102.94 460.62,-102.94 460.62,-61.94 519.38,-61.94 519.38,-102.94"/>
<text text-anchor="middle" x="490" y="-85.64" font-family="Times,serif" font-size="14.00">toCSR2</text>
<text text-anchor="middle" x="490" y="-69.14" font-family="Times,serif" font-size="14.00">Bundle</text>
</g>
<!-- imsic10_toCSR&#45;&gt;toCSR2 -->
<g id="edge23" class="edge">
<title>imsic10_toCSR&#45;&gt;toCSR2</title>
<path fill="none" stroke="black" d="M489,-138.81C489,-138.81 489,-114.91 489,-114.91"/>
<polygon fill="black" stroke="black" points="492.5,-114.91 489,-104.91 485.5,-114.91 492.5,-114.91"/>
</g>
<!-- map10&#45;&gt;imsic10_fromMem -->
<g id="edge14" class="edge">
<title>map10&#45;&gt;imsic10_fromMem</title>
<path fill="none" stroke="black" d="M437,-313.45C437,-313.45 437,-268.82 437,-268.82"/>
<polygon fill="black" stroke="black" points="440.5,-268.82 437,-258.82 433.5,-268.82 440.5,-268.82"/>
</g>
<!-- imsic11_fromMem -->
<g id="node16" class="node">
<title>imsic11_fromMem</title>
<polygon fill="none" stroke="black" points="626.5,-256.94 553.5,-256.94 553.5,-215.94 626.5,-215.94 626.5,-256.94"/>
<text text-anchor="middle" x="590" y="-239.64" font-family="Times,serif" font-size="14.00">fromMem</text>
<text text-anchor="middle" x="590" y="-223.14" font-family="Times,serif" font-size="14.00">TLXbar</text>
</g>
<!-- imsic11_fromCSR -->
<g id="node17" class="node">
<title>imsic11_fromCSR</title>
<polygon fill="none" stroke="black" points="610.25,-179.94 541.75,-179.94 541.75,-138.94 610.25,-138.94 610.25,-179.94"/>
<text text-anchor="middle" x="576" y="-162.64" font-family="Times,serif" font-size="14.00">fromCSR</text>
<text text-anchor="middle" x="576" y="-146.14" font-family="Times,serif" font-size="14.00">Bundle</text>
</g>
<!-- imsic11_fromMem&#45;&gt;imsic11_fromCSR -->
<g id="edge15" class="edge">
<title>imsic11_fromMem&#45;&gt;imsic11_fromCSR</title>
<path fill="none" stroke="none" d="M581.88,-215.81C581.88,-215.81 581.88,-191.91 581.88,-191.91"/>
<polygon fill="none" stroke="none" points="585.38,-191.91 581.88,-181.91 578.38,-191.91 585.38,-191.91"/>
</g>
<!-- imsic11_toCSR -->
<g id="node18" class="node">
<title>imsic11_toCSR</title>
<polygon fill="none" stroke="black" points="683.5,-179.94 628.5,-179.94 628.5,-138.94 683.5,-138.94 683.5,-179.94"/>
<text text-anchor="middle" x="656" y="-162.64" font-family="Times,serif" font-size="14.00">toCSR</text>
<text text-anchor="middle" x="656" y="-146.14" font-family="Times,serif" font-size="14.00">Bundle</text>
</g>
<!-- imsic11_fromMem&#45;&gt;imsic11_toCSR -->
<g id="edge16" class="edge">
<title>imsic11_fromMem&#45;&gt;imsic11_toCSR</title>
<path fill="none" stroke="none" d="M619.56,-215.55C619.56,-192.47 619.56,-158.5 619.56,-158.5 619.56,-158.5 620.41,-158.5 620.41,-158.5"/>
<polygon fill="none" stroke="none" points="616.5,-162 626.5,-158.5 616.5,-155 616.5,-162"/>
</g>
<!-- fromCSR3 -->
<g id="node27" class="node">
<title>fromCSR3</title>
<polygon fill="none" stroke="black" points="612.62,-102.94 537.38,-102.94 537.38,-61.94 612.62,-61.94 612.62,-102.94"/>
<text text-anchor="middle" x="575" y="-85.64" font-family="Times,serif" font-size="14.00">fromCSR3</text>
<text text-anchor="middle" x="575" y="-69.14" font-family="Times,serif" font-size="14.00">Bundle</text>
</g>
<!-- imsic11_fromCSR&#45;&gt;fromCSR3 -->
<g id="edge26" class="edge">
<title>imsic11_fromCSR&#45;&gt;fromCSR3</title>
<path fill="none" stroke="black" d="M576,-127.29C576,-127.29 576,-103.4 576,-103.4"/>
<polygon fill="black" stroke="black" points="572.5,-127.29 576,-137.29 579.5,-127.29 572.5,-127.29"/>
</g>
<!-- toCSR3 -->
<g id="node26" class="node">
<title>toCSR3</title>
<polygon fill="none" stroke="black" points="689.38,-102.94 630.62,-102.94 630.62,-61.94 689.38,-61.94 689.38,-102.94"/>
<text text-anchor="middle" x="660" y="-85.64" font-family="Times,serif" font-size="14.00">toCSR3</text>
<text text-anchor="middle" x="660" y="-69.14" font-family="Times,serif" font-size="14.00">Bundle</text>
</g>
<!-- imsic11_toCSR&#45;&gt;toCSR3 -->
<g id="edge25" class="edge">
<title>imsic11_toCSR&#45;&gt;toCSR3</title>
<path fill="none" stroke="black" d="M657.06,-138.81C657.06,-138.81 657.06,-114.91 657.06,-114.91"/>
<polygon fill="black" stroke="black" points="660.56,-114.91 657.06,-104.91 653.56,-114.91 660.56,-114.91"/>
</g>
<!-- map11&#45;&gt;imsic11_fromMem -->
<g id="edge18" class="edge">
<title>map11&#45;&gt;imsic11_fromMem</title>
<path fill="none" stroke="black" d="M590,-313.45C590,-313.45 590,-268.82 590,-268.82"/>
<polygon fill="black" stroke="black" points="593.5,-268.82 590,-258.82 586.5,-268.82 593.5,-268.82"/>
</g>
<!-- output -->
<g id="node33" class="node">
<title>output</title>
<polygon fill="none" stroke="none" points="722,-25.94 2,-25.94 2,-24.5 722,-24.5 722,-25.94"/>
</g>
<!-- toCSR0&#45;&gt;output -->
<g id="edge34" class="edge">
<title>toCSR0&#45;&gt;output</title>
<path fill="none" stroke="black" d="M150,-61.46C150,-61.46 150,-37.85 150,-37.85"/>
<polygon fill="black" stroke="black" points="153.5,-37.85 150,-27.85 146.5,-37.85 153.5,-37.85"/>
</g>
<!-- fromCSR0&#45;&gt;output -->
<g id="edge35" class="edge">
<title>fromCSR0&#45;&gt;output</title>
<path fill="none" stroke="black" d="M65,-49.94C65,-49.94 65,-26.34 65,-26.34"/>
<polygon fill="black" stroke="black" points="61.5,-49.94 65,-59.94 68.5,-49.94 61.5,-49.94"/>
</g>
<!-- toCSR1&#45;&gt;output -->
<g id="edge36" class="edge">
<title>toCSR1&#45;&gt;output</title>
<path fill="none" stroke="black" d="M320,-61.46C320,-61.46 320,-37.85 320,-37.85"/>
<polygon fill="black" stroke="black" points="323.5,-37.85 320,-27.85 316.5,-37.85 323.5,-37.85"/>
</g>
<!-- fromCSR1&#45;&gt;output -->
<g id="edge37" class="edge">
<title>fromCSR1&#45;&gt;output</title>
<path fill="none" stroke="black" d="M235,-49.94C235,-49.94 235,-26.34 235,-26.34"/>
<polygon fill="black" stroke="black" points="231.5,-49.94 235,-59.94 238.5,-49.94 231.5,-49.94"/>
</g>
<!-- toCSR2&#45;&gt;output -->
<g id="edge38" class="edge">
<title>toCSR2&#45;&gt;output</title>
<path fill="none" stroke="black" d="M490,-61.46C490,-61.46 490,-37.85 490,-37.85"/>
<polygon fill="black" stroke="black" points="493.5,-37.85 490,-27.85 486.5,-37.85 493.5,-37.85"/>
</g>
<!-- fromCSR2&#45;&gt;output -->
<g id="edge39" class="edge">
<title>fromCSR2&#45;&gt;output</title>
<path fill="none" stroke="black" d="M405,-49.94C405,-49.94 405,-26.34 405,-26.34"/>
<polygon fill="black" stroke="black" points="401.5,-49.94 405,-59.94 408.5,-49.94 401.5,-49.94"/>
</g>
<!-- toCSR3&#45;&gt;output -->
<g id="edge40" class="edge">
<title>toCSR3&#45;&gt;output</title>
<path fill="none" stroke="black" d="M660,-61.46C660,-61.46 660,-37.85 660,-37.85"/>
<polygon fill="black" stroke="black" points="663.5,-37.85 660,-27.85 656.5,-37.85 663.5,-37.85"/>
</g>
<!-- fromCSR3&#45;&gt;output -->
<g id="edge41" class="edge">
<title>fromCSR3&#45;&gt;output</title>
<path fill="none" stroke="black" d="M575,-49.94C575,-49.94 575,-26.34 575,-26.34"/>
<polygon fill="black" stroke="black" points="571.5,-49.94 575,-59.94 578.5,-49.94 571.5,-49.94"/>
</g>
<!-- aplic_toIMSIC -->
<g id="node29" class="node">
<title>aplic_toIMSIC</title>
<polygon fill="none" stroke="black" points="423.38,-541.94 358.62,-541.94 358.62,-500.94 423.38,-500.94 423.38,-541.94"/>
<text text-anchor="middle" x="391" y="-524.64" font-family="Times,serif" font-size="14.00">toIMSIC</text>
<text text-anchor="middle" x="391" y="-508.14" font-family="Times,serif" font-size="14.00">TLXbar</text>
</g>
<!-- aplic_fromCPU&#45;&gt;aplic_toIMSIC -->
<g id="edge27" class="edge">
<title>aplic_fromCPU&#45;&gt;aplic_toIMSIC</title>
<path fill="none" stroke="none" d="M391,-577.81C391,-577.81 391,-553.91 391,-553.91"/>
<polygon fill="none" stroke="none" points="394.5,-553.91 391,-543.91 387.5,-553.91 394.5,-553.91"/>
</g>
<!-- aplic_toIMSIC&#45;&gt;imsics_fromMem_xbar -->
<g id="edge30" class="edge">
<title>aplic_toIMSIC&#45;&gt;imsics_fromMem_xbar</title>
<path fill="none" stroke="black" d="M391,-500.81C391,-500.81 391,-476.91 391,-476.91"/>
<polygon fill="black" stroke="black" points="394.5,-476.91 391,-466.91 387.5,-476.91 394.5,-476.91"/>
</g>
<!-- aplic_intSrcs -->
<g id="node30" class="node">
<title>aplic_intSrcs</title>
<polygon fill="none" stroke="black" points="542.25,-618.94 443.75,-618.94 443.75,-577.94 542.25,-577.94 542.25,-618.94"/>
<text text-anchor="middle" x="493" y="-601.64" font-family="Times,serif" font-size="14.00">module.intSrcs</text>
<text text-anchor="middle" x="493" y="-585.14" font-family="Times,serif" font-size="14.00">Bundle</text>
</g>
<!-- aplic_intSrcs&#45;&gt;aplic_toIMSIC -->
<g id="edge28" class="edge">
<title>aplic_intSrcs&#45;&gt;aplic_toIMSIC</title>
<path fill="none" stroke="none" d="M493,-577.55C493,-554.47 493,-520.5 493,-520.5 493,-520.5 435.35,-520.5 435.35,-520.5"/>
<polygon fill="none" stroke="none" points="435.35,-517 425.35,-520.5 435.35,-524 435.35,-517"/>
</g>
<!-- intSrcs -->
<g id="node31" class="node">
<title>intSrcs</title>
<polygon fill="none" stroke="black" points="581.5,-716.94 526.5,-716.94 526.5,-675.94 581.5,-675.94 581.5,-716.94"/>
<text text-anchor="middle" x="554" y="-699.64" font-family="Times,serif" font-size="14.00">intSrcs</text>
<text text-anchor="middle" x="554" y="-683.14" font-family="Times,serif" font-size="14.00">Bundle</text>
</g>
<!-- intSrcs&#45;&gt;aplic_intSrcs -->
<g id="edge31" class="edge">
<title>intSrcs&#45;&gt;aplic_intSrcs</title>
<path fill="none" stroke="black" d="M534.38,-675.66C534.38,-675.66 534.38,-630.71 534.38,-630.71"/>
<polygon fill="black" stroke="black" points="537.88,-630.71 534.38,-620.71 530.88,-630.71 537.88,-630.71"/>
</g>
<!-- input -->
<g id="node32" class="node">
<title>input</title>
<polygon fill="none" stroke="none" points="620,-831.38 260,-831.38 260,-829.94 620,-829.94 620,-831.38"/>
</g>
<!-- input&#45;&gt;toAIA -->
<g id="edge33" class="edge">
<title>input&#45;&gt;toAIA</title>
<path fill="none" stroke="black" d="M403,-829.67C403,-829.67 403,-805.67 403,-805.67"/>
<polygon fill="black" stroke="black" points="406.5,-805.67 403,-795.67 399.5,-805.67 406.5,-805.67"/>
</g>
<!-- input&#45;&gt;intSrcs -->
<g id="edge32" class="edge">
<title>input&#45;&gt;intSrcs</title>
<path fill="none" stroke="black" d="M554,-829.8C554,-829.8 554,-728.84 554,-728.84"/>
<polygon fill="black" stroke="black" points="557.5,-728.84 554,-718.84 550.5,-728.84 557.5,-728.84"/>
</g>
</g>
</svg>
