<?xml version="1.0" encoding="UTF-8" standalone="no"?>
<!DOCTYPE svg PUBLIC "-//W3C//DTD SVG 1.1//EN"
 "http://www.w3.org/Graphics/SVG/1.1/DTD/svg11.dtd">
<!-- Generated by graphviz version 10.0.1 (0)
 -->
<!-- Title: G Pages: 1 -->
<svg width="528px" height="1078px"
 viewBox="0.00 0.00 527.75 1077.50" xmlns="http://www.w3.org/2000/svg" xmlns:xlink="http://www.w3.org/1999/xlink">
<g id="graph0" class="graph" transform="scale(1 1) rotate(0) translate(4 1073.5)">
<title>G</title>
<text text-anchor="middle" x="259.88" y="-7.2" font-family="Times,serif" font-size="14.00">IMSIC</text>
<g id="clust1" class="cluster">
<title>imsic</title>
<polygon fill="#f8cecc" stroke="#b85450" points="66,-40.5 66,-1061.5 445,-1061.5 445,-40.5 66,-40.5"/>
<text text-anchor="middle" x="255.5" y="-1044.2" font-family="Times,serif" font-size="14.00">IMSIC</text>
</g>
<g id="clust2" class="cluster">
<title>imsic_mint_file</title>
<polygon fill="#ffe6cc" stroke="#d79b00" points="74,-48.5 74,-287.5 313,-287.5 313,-48.5 74,-48.5"/>
<text text-anchor="middle" x="193.5" y="-270.2" font-family="Times,serif" font-size="14.00">M IntFile</text>
</g>
<g id="clust3" class="cluster">
<title>imsic_mint_file_mem</title>
<polygon fill="#f5f5f5" stroke="#666666" points="82,-79.5 82,-156.5 195,-156.5 195,-79.5 82,-79.5"/>
<text text-anchor="middle" x="138.5" y="-139.2" font-family="Times,serif" font-size="14.00">Mem[4KB]</text>
</g>
<g id="clust4" class="cluster">
<title>imsic_sint_file</title>
<polygon fill="#ffe6cc" stroke="#d79b00" points="74,-295.5 74,-534.5 313,-534.5 313,-295.5 74,-295.5"/>
<text text-anchor="middle" x="193.5" y="-517.2" font-family="Times,serif" font-size="14.00">S IntFile</text>
</g>
<g id="clust5" class="cluster">
<title>imsic_sint_file_mem</title>
<polygon fill="#f5f5f5" stroke="#666666" points="82,-326.5 82,-403.5 195,-403.5 195,-326.5 82,-326.5"/>
<text text-anchor="middle" x="138.5" y="-386.2" font-family="Times,serif" font-size="14.00">Mem[4KB]</text>
</g>
<g id="clust6" class="cluster">
<title>imsic_vsint_file_0</title>
<polygon fill="#ffe6cc" stroke="#d79b00" points="74,-542.5 74,-781.5 313,-781.5 313,-542.5 74,-542.5"/>
<text text-anchor="middle" x="193.5" y="-764.2" font-family="Times,serif" font-size="14.00">VS IntFile 0</text>
</g>
<g id="clust7" class="cluster">
<title>imsic_vsint_file_0_mem</title>
<polygon fill="#f5f5f5" stroke="#666666" points="82,-573.5 82,-650.5 195,-650.5 195,-573.5 82,-573.5"/>
<text text-anchor="middle" x="138.5" y="-633.2" font-family="Times,serif" font-size="14.00">Mem[4KB]</text>
</g>
<g id="clust8" class="cluster">
<title>imsic_vsint_file_1</title>
<polygon fill="#ffe6cc" stroke="#d79b00" points="74,-789.5 74,-1028.5 313,-1028.5 313,-789.5 74,-789.5"/>
<text text-anchor="middle" x="193.5" y="-1011.2" font-family="Times,serif" font-size="14.00">VS IntFile 1</text>
</g>
<g id="clust9" class="cluster">
<title>imsic_vsint_file_1_mem</title>
<polygon fill="#f5f5f5" stroke="#666666" points="82,-820.5 82,-897.5 195,-897.5 195,-820.5 82,-820.5"/>
<text text-anchor="middle" x="138.5" y="-880.2" font-family="Times,serif" font-size="14.00">Mem[4KB]</text>
</g>
<g id="clust10" class="cluster">
<title>vgein_same_rank</title>
<polygon fill="#f8cecc" stroke="none" points="333.75,-565.5 333.75,-929.5 437,-929.5 437,-565.5 333.75,-565.5"/>
</g>
<!-- bus -->
<g id="node1" class="node">
<title>bus</title>
<polygon fill="none" stroke="black" points="54,-907.5 0,-907.5 0,-43.5 54,-43.5 54,-907.5"/>
<text text-anchor="middle" x="27" y="-470.45" font-family="Times,serif" font-size="14.00">Bus</text>
</g>
<!-- imsic_mint_file_mem_seteipnum -->
<g id="node4" class="node">
<title>imsic_mint_file_mem_seteipnum</title>
<polygon fill="none" stroke="black" points="187,-123.5 90,-123.5 90,-87.5 187,-87.5 187,-123.5"/>
<text text-anchor="middle" x="138.5" y="-100.45" font-family="Times,serif" font-size="14.00">seteipnum[4B]</text>
</g>
<!-- bus&#45;&gt;imsic_mint_file_mem_seteipnum -->
<g id="edge36" class="edge">
<title>bus&#45;&gt;imsic_mint_file_mem_seteipnum</title>
<path fill="none" stroke="black" d="M54.28,-105.5C54.28,-103.5 78.24,-103.5 78.24,-105.5"/>
<path fill="none" stroke="none" d="M54.28,-105.5C54.28,-105.5 78.24,-105.5 78.24,-105.5"/>
<path fill="none" stroke="black" d="M54.28,-105.5C54.28,-107.5 78.24,-107.5 78.24,-105.5"/>
<polygon fill="black" stroke="black" points="78.24,-109 88.24,-105.5 78.24,-102 78.24,-109"/>
</g>
<!-- imsic_sint_file_mem_seteipnum -->
<g id="node12" class="node">
<title>imsic_sint_file_mem_seteipnum</title>
<polygon fill="none" stroke="black" points="187,-370.5 90,-370.5 90,-334.5 187,-334.5 187,-370.5"/>
<text text-anchor="middle" x="138.5" y="-347.45" font-family="Times,serif" font-size="14.00">seteipnum[4B]</text>
</g>
<!-- bus&#45;&gt;imsic_sint_file_mem_seteipnum -->
<g id="edge37" class="edge">
<title>bus&#45;&gt;imsic_sint_file_mem_seteipnum</title>
<path fill="none" stroke="black" d="M54.28,-352.5C54.28,-350.5 78.24,-350.5 78.24,-352.5"/>
<path fill="none" stroke="none" d="M54.28,-352.5C54.28,-352.5 78.24,-352.5 78.24,-352.5"/>
<path fill="none" stroke="black" d="M54.28,-352.5C54.28,-354.5 78.24,-354.5 78.24,-352.5"/>
<polygon fill="black" stroke="black" points="78.24,-356 88.24,-352.5 78.24,-349 78.24,-356"/>
</g>
<!-- imsic_vsint_file_0_mem_seteipnum -->
<g id="node20" class="node">
<title>imsic_vsint_file_0_mem_seteipnum</title>
<polygon fill="none" stroke="black" points="187,-617.5 90,-617.5 90,-581.5 187,-581.5 187,-617.5"/>
<text text-anchor="middle" x="138.5" y="-594.45" font-family="Times,serif" font-size="14.00">seteipnum[4B]</text>
</g>
<!-- bus&#45;&gt;imsic_vsint_file_0_mem_seteipnum -->
<g id="edge38" class="edge">
<title>bus&#45;&gt;imsic_vsint_file_0_mem_seteipnum</title>
<path fill="none" stroke="black" d="M54.28,-599.5C54.28,-597.5 78.24,-597.5 78.24,-599.5"/>
<path fill="none" stroke="none" d="M54.28,-599.5C54.28,-599.5 78.24,-599.5 78.24,-599.5"/>
<path fill="none" stroke="black" d="M54.28,-599.5C54.28,-601.5 78.24,-601.5 78.24,-599.5"/>
<polygon fill="black" stroke="black" points="78.24,-603 88.24,-599.5 78.24,-596 78.24,-603"/>
</g>
<!-- imsic_vsint_file_1_mem_seteipnum -->
<g id="node28" class="node">
<title>imsic_vsint_file_1_mem_seteipnum</title>
<polygon fill="none" stroke="black" points="187,-864.5 90,-864.5 90,-828.5 187,-828.5 187,-864.5"/>
<text text-anchor="middle" x="138.5" y="-841.45" font-family="Times,serif" font-size="14.00">seteipnum[4B]</text>
</g>
<!-- bus&#45;&gt;imsic_vsint_file_1_mem_seteipnum -->
<g id="edge39" class="edge">
<title>bus&#45;&gt;imsic_vsint_file_1_mem_seteipnum</title>
<path fill="none" stroke="black" d="M54.28,-846.5C54.28,-844.5 78.24,-844.5 78.24,-846.5"/>
<path fill="none" stroke="none" d="M54.28,-846.5C54.28,-846.5 78.24,-846.5 78.24,-846.5"/>
<path fill="none" stroke="black" d="M54.28,-846.5C54.28,-848.5 78.24,-848.5 78.24,-846.5"/>
<polygon fill="black" stroke="black" points="78.24,-850 88.24,-846.5 78.24,-843 78.24,-850"/>
</g>
<!-- hart -->
<g id="node2" class="node">
<title>hart</title>
<polygon fill="none" stroke="black" points="519.75,-888.5 465.75,-888.5 465.75,-24.5 519.75,-24.5 519.75,-888.5"/>
<text text-anchor="middle" x="492.75" y="-451.45" font-family="Times,serif" font-size="14.00">Hart</text>
</g>
<!-- imsic_vgein -->
<g id="node3" class="node">
<title>imsic_vgein</title>
<polygon fill="none" stroke="black" points="412.38,-609.5 358.38,-609.5 358.38,-573.5 412.38,-573.5 412.38,-609.5"/>
<text text-anchor="middle" x="385.38" y="-586.45" font-family="Times,serif" font-size="14.00">vgein</text>
</g>
<!-- imsic_vgein&#45;&gt;hart -->
<g id="edge53" class="edge">
<title>imsic_vgein&#45;&gt;hart</title>
<path fill="none" stroke="black" d="M424.26,-591.5C424.26,-591.5 465.43,-591.5 465.43,-591.5"/>
<polygon fill="black" stroke="black" points="424.26,-588 414.26,-591.5 424.26,-595 424.26,-588"/>
</g>
<!-- imsic_vstopei -->
<g id="node11" class="node">
<title>imsic_vstopei</title>
<polygon fill="none" stroke="black" points="425.25,-713.7 345.5,-713.7 345.5,-627.3 425.25,-627.3 425.25,-713.7"/>
<text text-anchor="middle" x="385.38" y="-665.45" font-family="Times,serif" font-size="14.00">vstopei[4B]</text>
</g>
<!-- imsic_vgein&#45;&gt;imsic_vstopei -->
<g id="edge33" class="edge">
<title>imsic_vgein&#45;&gt;imsic_vstopei</title>
<path fill="none" stroke="gray" d="M385.75,-609.82C385.75,-609.82 385.75,-615.41 385.75,-615.41"/>
<polygon fill="gray" stroke="gray" points="382.25,-615.41 385.75,-625.41 389.25,-615.41 382.25,-615.41"/>
</g>
<!-- imsic_vsiselect -->
<g id="node19" class="node">
<title>imsic_vsiselect</title>
<polygon fill="none" stroke="black" points="429,-817.7 341.75,-817.7 341.75,-731.3 429,-731.3 429,-817.7"/>
<text text-anchor="middle" x="385.38" y="-769.45" font-family="Times,serif" font-size="14.00">vsiselect[4B]</text>
</g>
<!-- imsic_vgein&#45;&gt;imsic_vsiselect -->
<g id="edge34" class="edge">
<title>imsic_vgein&#45;&gt;imsic_vsiselect</title>
<path fill="none" stroke="gray" d="M357.89,-595.5C343.87,-595.5 329.75,-595.5 329.75,-595.5 329.75,-595.5 329.75,-735.6 329.75,-735.6 329.75,-735.6 330.9,-735.6 330.9,-735.6"/>
<polygon fill="gray" stroke="gray" points="329.76,-739.1 339.76,-735.6 329.76,-732.1 329.76,-739.1"/>
</g>
<!-- imsic_vsireg -->
<g id="node27" class="node">
<title>imsic_vsireg</title>
<polygon fill="none" stroke="black" points="422.25,-921.7 348.5,-921.7 348.5,-835.3 422.25,-835.3 422.25,-921.7"/>
<text text-anchor="middle" x="385.38" y="-873.45" font-family="Times,serif" font-size="14.00">vsireg[4B]</text>
</g>
<!-- imsic_vgein&#45;&gt;imsic_vsireg -->
<g id="edge35" class="edge">
<title>imsic_vgein&#45;&gt;imsic_vsireg</title>
<path fill="none" stroke="gray" d="M358.26,-591C339.45,-591 317.75,-591 317.75,-591 317.75,-591 317.75,-840.7 317.75,-840.7 317.75,-840.7 336.49,-840.7 336.49,-840.7"/>
<polygon fill="gray" stroke="gray" points="336.49,-844.2 346.49,-840.7 336.49,-837.2 336.49,-844.2"/>
</g>
<!-- imsic_mint_file_pending -->
<g id="node5" class="node">
<title>imsic_mint_file_pending</title>
<polygon fill="none" stroke="black" points="305,-92.5 223,-92.5 223,-56.5 305,-56.5 305,-92.5"/>
<text text-anchor="middle" x="264" y="-69.45" font-family="Times,serif" font-size="14.00">pending[1b]</text>
</g>
<!-- imsic_mint_file_mem_seteipnum&#45;&gt;imsic_mint_file_pending -->
<g id="edge1" class="edge">
<title>imsic_mint_file_mem_seteipnum&#45;&gt;imsic_mint_file_pending</title>
<path fill="none" stroke="none" d="M187.28,-101.5C210.28,-101.5 232.75,-101.5 232.75,-101.5 232.75,-101.5 232.75,-100.65 232.75,-100.65"/>
<polygon fill="none" stroke="none" points="236.25,-104.47 232.75,-94.47 229.25,-104.47 236.25,-104.47"/>
</g>
<!-- imsic_mint_file_topei -->
<g id="node6" class="node">
<title>imsic_mint_file_topei</title>
<polygon fill="none" stroke="black" points="291,-146.5 237,-146.5 237,-110.5 291,-110.5 291,-146.5"/>
<text text-anchor="middle" x="264" y="-123.45" font-family="Times,serif" font-size="14.00">topei</text>
</g>
<!-- imsic_mint_file_mem_seteipnum&#45;&gt;imsic_mint_file_topei -->
<g id="edge2" class="edge">
<title>imsic_mint_file_mem_seteipnum&#45;&gt;imsic_mint_file_topei</title>
<path fill="none" stroke="none" d="M187.38,-117C187.38,-117 225.29,-117 225.29,-117"/>
<polygon fill="none" stroke="none" points="225.29,-120.5 235.29,-117 225.29,-113.5 225.29,-120.5"/>
</g>
<!-- imsic_mint_file_iselect -->
<g id="node7" class="node">
<title>imsic_mint_file_iselect</title>
<polygon fill="none" stroke="black" points="291,-200.5 237,-200.5 237,-164.5 291,-164.5 291,-200.5"/>
<text text-anchor="middle" x="264" y="-177.45" font-family="Times,serif" font-size="14.00">iselect</text>
</g>
<!-- imsic_mint_file_mem_seteipnum&#45;&gt;imsic_mint_file_iselect -->
<g id="edge3" class="edge">
<title>imsic_mint_file_mem_seteipnum&#45;&gt;imsic_mint_file_iselect</title>
<path fill="none" stroke="none" d="M176.75,-123.75C176.75,-146.52 176.75,-182.5 176.75,-182.5 176.75,-182.5 225.36,-182.5 225.36,-182.5"/>
<polygon fill="none" stroke="none" points="225.36,-186 235.36,-182.5 225.36,-179 225.36,-186"/>
</g>
<!-- imsic_mint_file_ireg -->
<g id="node8" class="node">
<title>imsic_mint_file_ireg</title>
<polygon fill="none" stroke="black" points="291,-254.5 237,-254.5 237,-218.5 291,-218.5 291,-254.5"/>
<text text-anchor="middle" x="264" y="-231.45" font-family="Times,serif" font-size="14.00">ireg</text>
</g>
<!-- imsic_mint_file_mem_seteipnum&#45;&gt;imsic_mint_file_ireg -->
<g id="edge4" class="edge">
<title>imsic_mint_file_mem_seteipnum&#45;&gt;imsic_mint_file_ireg</title>
<path fill="none" stroke="none" d="M171.75,-123.99C171.75,-160.1 171.75,-236.5 171.75,-236.5 171.75,-236.5 225.06,-236.5 225.06,-236.5"/>
<polygon fill="none" stroke="none" points="225.06,-240 235.06,-236.5 225.06,-233 225.06,-240"/>
</g>
<!-- imsic_pending_0 -->
<g id="node37" class="node">
<title>imsic_pending_0</title>
<polygon fill="none" stroke="black" points="429.75,-92.5 341,-92.5 341,-56.5 429.75,-56.5 429.75,-92.5"/>
<text text-anchor="middle" x="385.38" y="-69.45" font-family="Times,serif" font-size="14.00">pending0[1b]</text>
</g>
<!-- imsic_mint_file_pending&#45;&gt;imsic_pending_0 -->
<g id="edge21" class="edge">
<title>imsic_mint_file_pending&#45;&gt;imsic_pending_0</title>
<path fill="none" stroke="black" d="M305.43,-74.5C305.43,-74.5 329.3,-74.5 329.3,-74.5"/>
<polygon fill="black" stroke="black" points="329.3,-78 339.3,-74.5 329.3,-71 329.3,-78"/>
</g>
<!-- imsic_mtopei -->
<g id="node35" class="node">
<title>imsic_mtopei</title>
<polygon fill="none" stroke="black" points="424.88,-150.5 345.88,-150.5 345.88,-114.5 424.88,-114.5 424.88,-150.5"/>
<text text-anchor="middle" x="385.38" y="-127.45" font-family="Times,serif" font-size="14.00">mtopei[4B]</text>
</g>
<!-- imsic_mint_file_topei&#45;&gt;imsic_mtopei -->
<g id="edge17" class="edge">
<title>imsic_mint_file_topei&#45;&gt;imsic_mtopei</title>
<path fill="none" stroke="black" d="M291.24,-130.5C291.24,-130.5 334.28,-130.5 334.28,-130.5"/>
<polygon fill="black" stroke="black" points="334.28,-134 344.28,-130.5 334.28,-127 334.28,-134"/>
</g>
<!-- imsic_miselect -->
<g id="node41" class="node">
<title>imsic_miselect</title>
<polygon fill="none" stroke="black" points="428.62,-208.5 342.12,-208.5 342.12,-172.5 428.62,-172.5 428.62,-208.5"/>
<text text-anchor="middle" x="385.38" y="-185.45" font-family="Times,serif" font-size="14.00">miselect[4B]</text>
</g>
<!-- imsic_mint_file_iselect&#45;&gt;imsic_miselect -->
<g id="edge25" class="edge">
<title>imsic_mint_file_iselect&#45;&gt;imsic_miselect</title>
<path fill="none" stroke="black" d="M302.75,-186.5C302.75,-186.5 342.03,-186.5 342.03,-186.5"/>
<polygon fill="black" stroke="black" points="302.75,-183 292.75,-186.5 302.75,-190 302.75,-183"/>
</g>
<!-- imsic_mireg -->
<g id="node43" class="node">
<title>imsic_mireg</title>
<polygon fill="none" stroke="black" points="421.88,-277.5 348.88,-277.5 348.88,-241.5 421.88,-241.5 421.88,-277.5"/>
<text text-anchor="middle" x="385.38" y="-254.45" font-family="Times,serif" font-size="14.00">mireg[4B]</text>
</g>
<!-- imsic_mint_file_ireg&#45;&gt;imsic_mireg -->
<g id="edge29" class="edge">
<title>imsic_mint_file_ireg&#45;&gt;imsic_mireg</title>
<path fill="none" stroke="black" d="M302.75,-248C302.75,-248 337.05,-248 337.05,-248"/>
<polygon fill="black" stroke="black" points="302.75,-244.5 292.75,-248 302.75,-251.5 302.75,-244.5"/>
<polygon fill="black" stroke="black" points="337.05,-251.5 347.05,-248 337.05,-244.5 337.05,-251.5"/>
</g>
<!-- imsic_mint_file_eips -->
<g id="node9" class="node">
<title>imsic_mint_file_eips</title>
<polygon fill="none" stroke="black" points="165.5,-200.5 111.5,-200.5 111.5,-164.5 165.5,-164.5 165.5,-200.5"/>
<text text-anchor="middle" x="138.5" y="-177.45" font-family="Times,serif" font-size="14.00">eip[]</text>
</g>
<!-- imsic_mint_file_eies -->
<g id="node10" class="node">
<title>imsic_mint_file_eies</title>
<polygon fill="none" stroke="black" points="165.5,-254.5 111.5,-254.5 111.5,-218.5 165.5,-218.5 165.5,-254.5"/>
<text text-anchor="middle" x="138.5" y="-231.45" font-family="Times,serif" font-size="14.00">eie[]</text>
</g>
<!-- imsic_vstopei&#45;&gt;hart -->
<g id="edge46" class="edge">
<title>imsic_vstopei&#45;&gt;hart</title>
<path fill="none" stroke="black" d="M425.66,-670.5C425.66,-670.5 453.76,-670.5 453.76,-670.5"/>
<polygon fill="black" stroke="black" points="453.76,-674 463.76,-670.5 453.76,-667 453.76,-674"/>
</g>
<!-- imsic_sint_file_pending -->
<g id="node13" class="node">
<title>imsic_sint_file_pending</title>
<polygon fill="none" stroke="black" points="305,-447.5 223,-447.5 223,-411.5 305,-411.5 305,-447.5"/>
<text text-anchor="middle" x="264" y="-424.45" font-family="Times,serif" font-size="14.00">pending[1b]</text>
</g>
<!-- imsic_sint_file_mem_seteipnum&#45;&gt;imsic_sint_file_pending -->
<g id="edge5" class="edge">
<title>imsic_sint_file_mem_seteipnum&#45;&gt;imsic_sint_file_pending</title>
<path fill="none" stroke="none" d="M187.3,-366.17C208.14,-366.17 227.75,-366.17 227.75,-366.17 227.75,-366.17 227.75,-399.67 227.75,-399.67"/>
<polygon fill="none" stroke="none" points="224.25,-399.67 227.75,-409.67 231.25,-399.67 224.25,-399.67"/>
</g>
<!-- imsic_sint_file_topei -->
<g id="node14" class="node">
<title>imsic_sint_file_topei</title>
<polygon fill="none" stroke="black" points="291,-501.5 237,-501.5 237,-465.5 291,-465.5 291,-501.5"/>
<text text-anchor="middle" x="264" y="-478.45" font-family="Times,serif" font-size="14.00">topei</text>
</g>
<!-- imsic_sint_file_mem_seteipnum&#45;&gt;imsic_sint_file_topei -->
<g id="edge6" class="edge">
<title>imsic_sint_file_mem_seteipnum&#45;&gt;imsic_sint_file_topei</title>
<path fill="none" stroke="none" d="M176.75,-370.99C176.75,-407.1 176.75,-483.5 176.75,-483.5 176.75,-483.5 225.36,-483.5 225.36,-483.5"/>
<polygon fill="none" stroke="none" points="225.36,-487 235.36,-483.5 225.36,-480 225.36,-487"/>
</g>
<!-- imsic_sint_file_iselect -->
<g id="node15" class="node">
<title>imsic_sint_file_iselect</title>
<polygon fill="none" stroke="black" points="291,-339.5 237,-339.5 237,-303.5 291,-303.5 291,-339.5"/>
<text text-anchor="middle" x="264" y="-316.45" font-family="Times,serif" font-size="14.00">iselect</text>
</g>
<!-- imsic_sint_file_mem_seteipnum&#45;&gt;imsic_sint_file_iselect -->
<g id="edge7" class="edge">
<title>imsic_sint_file_mem_seteipnum&#45;&gt;imsic_sint_file_iselect</title>
<path fill="none" stroke="none" d="M181.75,-334.18C181.75,-326.36 181.75,-319 181.75,-319 181.75,-319 225.1,-319 225.1,-319"/>
<polygon fill="none" stroke="none" points="225.1,-322.5 235.1,-319 225.1,-315.5 225.1,-322.5"/>
</g>
<!-- imsic_sint_file_ireg -->
<g id="node16" class="node">
<title>imsic_sint_file_ireg</title>
<polygon fill="none" stroke="black" points="291,-393.5 237,-393.5 237,-357.5 291,-357.5 291,-393.5"/>
<text text-anchor="middle" x="264" y="-370.45" font-family="Times,serif" font-size="14.00">ireg</text>
</g>
<!-- imsic_sint_file_mem_seteipnum&#45;&gt;imsic_sint_file_ireg -->
<g id="edge8" class="edge">
<title>imsic_sint_file_mem_seteipnum&#45;&gt;imsic_sint_file_ireg</title>
<path fill="none" stroke="none" d="M187.38,-361.83C187.38,-361.83 225.29,-361.83 225.29,-361.83"/>
<polygon fill="none" stroke="none" points="225.29,-365.33 235.29,-361.83 225.29,-358.33 225.29,-365.33"/>
</g>
<!-- imsic_pending_1 -->
<g id="node38" class="node">
<title>imsic_pending_1</title>
<polygon fill="none" stroke="black" points="429.75,-447.5 341,-447.5 341,-411.5 429.75,-411.5 429.75,-447.5"/>
<text text-anchor="middle" x="385.38" y="-424.45" font-family="Times,serif" font-size="14.00">pending1[1b]</text>
</g>
<!-- imsic_sint_file_pending&#45;&gt;imsic_pending_1 -->
<g id="edge22" class="edge">
<title>imsic_sint_file_pending&#45;&gt;imsic_pending_1</title>
<path fill="none" stroke="black" d="M305.43,-429.5C305.43,-429.5 329.3,-429.5 329.3,-429.5"/>
<polygon fill="black" stroke="black" points="329.3,-433 339.3,-429.5 329.3,-426 329.3,-433"/>
</g>
<!-- imsic_stopei -->
<g id="node36" class="node">
<title>imsic_stopei</title>
<polygon fill="none" stroke="black" points="421.88,-501.5 348.88,-501.5 348.88,-465.5 421.88,-465.5 421.88,-501.5"/>
<text text-anchor="middle" x="385.38" y="-478.45" font-family="Times,serif" font-size="14.00">stopei[4B]</text>
</g>
<!-- imsic_sint_file_topei&#45;&gt;imsic_stopei -->
<g id="edge18" class="edge">
<title>imsic_sint_file_topei&#45;&gt;imsic_stopei</title>
<path fill="none" stroke="black" d="M291.24,-483.5C291.24,-483.5 337.05,-483.5 337.05,-483.5"/>
<polygon fill="black" stroke="black" points="337.05,-487 347.05,-483.5 337.05,-480 337.05,-487"/>
</g>
<!-- imsic_siselect -->
<g id="node42" class="node">
<title>imsic_siselect</title>
<polygon fill="none" stroke="black" points="425.62,-339.5 345.12,-339.5 345.12,-303.5 425.62,-303.5 425.62,-339.5"/>
<text text-anchor="middle" x="385.38" y="-316.45" font-family="Times,serif" font-size="14.00">siselect[4B]</text>
</g>
<!-- imsic_sint_file_iselect&#45;&gt;imsic_siselect -->
<g id="edge26" class="edge">
<title>imsic_sint_file_iselect&#45;&gt;imsic_siselect</title>
<path fill="none" stroke="black" d="M302.75,-321.5C302.75,-321.5 344.86,-321.5 344.86,-321.5"/>
<polygon fill="black" stroke="black" points="302.75,-318 292.75,-321.5 302.75,-325 302.75,-318"/>
</g>
<!-- imsic_sireg -->
<g id="node44" class="node">
<title>imsic_sireg</title>
<polygon fill="none" stroke="black" points="418.88,-393.5 351.88,-393.5 351.88,-357.5 418.88,-357.5 418.88,-393.5"/>
<text text-anchor="middle" x="385.38" y="-370.45" font-family="Times,serif" font-size="14.00">sireg[4B]</text>
</g>
<!-- imsic_sint_file_ireg&#45;&gt;imsic_sireg -->
<g id="edge30" class="edge">
<title>imsic_sint_file_ireg&#45;&gt;imsic_sireg</title>
<path fill="none" stroke="black" d="M302.75,-375.5C302.75,-375.5 340.21,-375.5 340.21,-375.5"/>
<polygon fill="black" stroke="black" points="302.75,-372 292.75,-375.5 302.75,-379 302.75,-372"/>
<polygon fill="black" stroke="black" points="340.21,-379 350.21,-375.5 340.21,-372 340.21,-379"/>
</g>
<!-- imsic_sint_file_eips -->
<g id="node17" class="node">
<title>imsic_sint_file_eips</title>
<polygon fill="none" stroke="black" points="165.5,-447.5 111.5,-447.5 111.5,-411.5 165.5,-411.5 165.5,-447.5"/>
<text text-anchor="middle" x="138.5" y="-424.45" font-family="Times,serif" font-size="14.00">eip[]</text>
</g>
<!-- imsic_sint_file_eies -->
<g id="node18" class="node">
<title>imsic_sint_file_eies</title>
<polygon fill="none" stroke="black" points="165.5,-501.5 111.5,-501.5 111.5,-465.5 165.5,-465.5 165.5,-501.5"/>
<text text-anchor="middle" x="138.5" y="-478.45" font-family="Times,serif" font-size="14.00">eie[]</text>
</g>
<!-- imsic_vsiselect&#45;&gt;hart -->
<g id="edge49" class="edge">
<title>imsic_vsiselect&#45;&gt;hart</title>
<path fill="none" stroke="black" d="M440.87,-774.5C440.87,-774.5 465.3,-774.5 465.3,-774.5"/>
<polygon fill="black" stroke="black" points="440.87,-771 430.87,-774.5 440.87,-778 440.87,-771"/>
</g>
<!-- imsic_vsint_file_0_pending -->
<g id="node21" class="node">
<title>imsic_vsint_file_0_pending</title>
<polygon fill="none" stroke="black" points="305,-586.5 223,-586.5 223,-550.5 305,-550.5 305,-586.5"/>
<text text-anchor="middle" x="264" y="-563.45" font-family="Times,serif" font-size="14.00">pending[1b]</text>
</g>
<!-- imsic_vsint_file_0_mem_seteipnum&#45;&gt;imsic_vsint_file_0_pending -->
<g id="edge9" class="edge">
<title>imsic_vsint_file_0_mem_seteipnum&#45;&gt;imsic_vsint_file_0_pending</title>
<path fill="none" stroke="none" d="M187.28,-600C210.28,-600 232.75,-600 232.75,-600 232.75,-600 232.75,-598.34 232.75,-598.34"/>
<polygon fill="none" stroke="none" points="236.25,-598.34 232.75,-588.34 229.25,-598.34 236.25,-598.34"/>
</g>
<!-- imsic_vsint_file_0_topei -->
<g id="node22" class="node">
<title>imsic_vsint_file_0_topei</title>
<polygon fill="none" stroke="black" points="291,-640.5 237,-640.5 237,-604.5 291,-604.5 291,-640.5"/>
<text text-anchor="middle" x="264" y="-617.45" font-family="Times,serif" font-size="14.00">topei</text>
</g>
<!-- imsic_vsint_file_0_mem_seteipnum&#45;&gt;imsic_vsint_file_0_topei -->
<g id="edge10" class="edge">
<title>imsic_vsint_file_0_mem_seteipnum&#45;&gt;imsic_vsint_file_0_topei</title>
<path fill="none" stroke="none" d="M187.38,-611C187.38,-611 225.29,-611 225.29,-611"/>
<polygon fill="none" stroke="none" points="225.29,-614.5 235.29,-611 225.29,-607.5 225.29,-614.5"/>
</g>
<!-- imsic_vsint_file_0_iselect -->
<g id="node23" class="node">
<title>imsic_vsint_file_0_iselect</title>
<polygon fill="none" stroke="black" points="291,-694.5 237,-694.5 237,-658.5 291,-658.5 291,-694.5"/>
<text text-anchor="middle" x="264" y="-671.45" font-family="Times,serif" font-size="14.00">iselect</text>
</g>
<!-- imsic_vsint_file_0_mem_seteipnum&#45;&gt;imsic_vsint_file_0_iselect -->
<g id="edge11" class="edge">
<title>imsic_vsint_file_0_mem_seteipnum&#45;&gt;imsic_vsint_file_0_iselect</title>
<path fill="none" stroke="none" d="M176.75,-617.75C176.75,-640.52 176.75,-676.5 176.75,-676.5 176.75,-676.5 225.36,-676.5 225.36,-676.5"/>
<polygon fill="none" stroke="none" points="225.36,-680 235.36,-676.5 225.36,-673 225.36,-680"/>
</g>
<!-- imsic_vsint_file_0_ireg -->
<g id="node24" class="node">
<title>imsic_vsint_file_0_ireg</title>
<polygon fill="none" stroke="black" points="291,-748.5 237,-748.5 237,-712.5 291,-712.5 291,-748.5"/>
<text text-anchor="middle" x="264" y="-725.45" font-family="Times,serif" font-size="14.00">ireg</text>
</g>
<!-- imsic_vsint_file_0_mem_seteipnum&#45;&gt;imsic_vsint_file_0_ireg -->
<g id="edge12" class="edge">
<title>imsic_vsint_file_0_mem_seteipnum&#45;&gt;imsic_vsint_file_0_ireg</title>
<path fill="none" stroke="none" d="M171.75,-617.99C171.75,-654.1 171.75,-730.5 171.75,-730.5 171.75,-730.5 225.06,-730.5 225.06,-730.5"/>
<polygon fill="none" stroke="none" points="225.06,-734 235.06,-730.5 225.06,-727 225.06,-734"/>
</g>
<!-- imsic_pending_2 -->
<g id="node39" class="node">
<title>imsic_pending_2</title>
<polygon fill="none" stroke="black" points="429.75,-555.5 341,-555.5 341,-519.5 429.75,-519.5 429.75,-555.5"/>
<text text-anchor="middle" x="385.38" y="-532.45" font-family="Times,serif" font-size="14.00">pending2[1b]</text>
</g>
<!-- imsic_vsint_file_0_pending&#45;&gt;imsic_pending_2 -->
<g id="edge23" class="edge">
<title>imsic_vsint_file_0_pending&#45;&gt;imsic_pending_2</title>
<path fill="none" stroke="black" d="M305.26,-564.5C328.43,-564.5 352.75,-564.5 352.75,-564.5 352.75,-564.5 352.75,-563.65 352.75,-563.65"/>
<polygon fill="black" stroke="black" points="356.25,-567.47 352.75,-557.47 349.25,-567.47 356.25,-567.47"/>
</g>
<!-- imsic_vsint_file_0_topei&#45;&gt;imsic_vstopei -->
<g id="edge19" class="edge">
<title>imsic_vsint_file_0_topei&#45;&gt;imsic_vstopei</title>
<path fill="none" stroke="black" d="M291.24,-633.9C291.24,-633.9 333.81,-633.9 333.81,-633.9"/>
<polygon fill="black" stroke="black" points="333.81,-637.4 343.81,-633.9 333.81,-630.4 333.81,-637.4"/>
</g>
<!-- imsic_vsint_file_0_iselect&#45;&gt;imsic_vsiselect -->
<g id="edge27" class="edge">
<title>imsic_vsint_file_0_iselect&#45;&gt;imsic_vsiselect</title>
<path fill="none" stroke="black" d="M298.92,-676.5C298.92,-676.5 299.75,-676.5 299.75,-676.5 299.75,-676.5 299.75,-739.9 299.75,-739.9 299.75,-739.9 320.33,-739.9 341.31,-739.9"/>
<polygon fill="black" stroke="black" points="302.97,-673 292.97,-676.5 302.97,-680 302.97,-673"/>
</g>
<!-- imsic_vsint_file_0_ireg&#45;&gt;imsic_vsireg -->
<g id="edge31" class="edge">
<title>imsic_vsint_file_0_ireg&#45;&gt;imsic_vsireg</title>
<path fill="none" stroke="black" d="M294.42,-744.2C294.42,-744.2 294.75,-744.2 294.75,-744.2 294.75,-744.2 294.75,-846.1 294.75,-846.1 294.75,-846.1 336.74,-846.1 336.74,-846.1"/>
<polygon fill="black" stroke="black" points="302.97,-740.7 292.97,-744.2 302.97,-747.7 302.97,-740.7"/>
<polygon fill="black" stroke="black" points="336.74,-849.6 346.74,-846.1 336.74,-842.6 336.74,-849.6"/>
</g>
<!-- imsic_vsint_file_0_eips -->
<g id="node25" class="node">
<title>imsic_vsint_file_0_eips</title>
<polygon fill="none" stroke="black" points="165.5,-694.5 111.5,-694.5 111.5,-658.5 165.5,-658.5 165.5,-694.5"/>
<text text-anchor="middle" x="138.5" y="-671.45" font-family="Times,serif" font-size="14.00">eip[]</text>
</g>
<!-- imsic_vsint_file_0_eies -->
<g id="node26" class="node">
<title>imsic_vsint_file_0_eies</title>
<polygon fill="none" stroke="black" points="165.5,-748.5 111.5,-748.5 111.5,-712.5 165.5,-712.5 165.5,-748.5"/>
<text text-anchor="middle" x="138.5" y="-725.45" font-family="Times,serif" font-size="14.00">eie[]</text>
</g>
<!-- imsic_vsireg&#45;&gt;hart -->
<g id="edge52" class="edge">
<title>imsic_vsireg&#45;&gt;hart</title>
<path fill="none" stroke="black" d="M434.14,-861.9C434.14,-861.9 453.87,-861.9 453.87,-861.9"/>
<polygon fill="black" stroke="black" points="434.14,-858.4 424.14,-861.9 434.14,-865.4 434.14,-858.4"/>
<polygon fill="black" stroke="black" points="453.87,-865.4 463.87,-861.9 453.87,-858.4 453.87,-865.4"/>
</g>
<!-- imsic_vsint_file_1_pending -->
<g id="node29" class="node">
<title>imsic_vsint_file_1_pending</title>
<polygon fill="none" stroke="black" points="305,-995.5 223,-995.5 223,-959.5 305,-959.5 305,-995.5"/>
<text text-anchor="middle" x="264" y="-972.45" font-family="Times,serif" font-size="14.00">pending[1b]</text>
</g>
<!-- imsic_vsint_file_1_mem_seteipnum&#45;&gt;imsic_vsint_file_1_pending -->
<g id="edge13" class="edge">
<title>imsic_vsint_file_1_mem_seteipnum&#45;&gt;imsic_vsint_file_1_pending</title>
<path fill="none" stroke="none" d="M187.3,-860.17C208.14,-860.17 227.75,-860.17 227.75,-860.17 227.75,-860.17 227.75,-947.65 227.75,-947.65"/>
<polygon fill="none" stroke="none" points="224.25,-947.65 227.75,-957.65 231.25,-947.65 224.25,-947.65"/>
</g>
<!-- imsic_vsint_file_1_topei -->
<g id="node30" class="node">
<title>imsic_vsint_file_1_topei</title>
<polygon fill="none" stroke="black" points="291,-833.5 237,-833.5 237,-797.5 291,-797.5 291,-833.5"/>
<text text-anchor="middle" x="264" y="-810.45" font-family="Times,serif" font-size="14.00">topei</text>
</g>
<!-- imsic_vsint_file_1_mem_seteipnum&#45;&gt;imsic_vsint_file_1_topei -->
<g id="edge14" class="edge">
<title>imsic_vsint_file_1_mem_seteipnum&#45;&gt;imsic_vsint_file_1_topei</title>
<path fill="none" stroke="none" d="M181.75,-828.18C181.75,-820.36 181.75,-813 181.75,-813 181.75,-813 225.1,-813 225.1,-813"/>
<polygon fill="none" stroke="none" points="225.1,-816.5 235.1,-813 225.1,-809.5 225.1,-816.5"/>
</g>
<!-- imsic_vsint_file_1_iselect -->
<g id="node31" class="node">
<title>imsic_vsint_file_1_iselect</title>
<polygon fill="none" stroke="black" points="291,-887.5 237,-887.5 237,-851.5 291,-851.5 291,-887.5"/>
<text text-anchor="middle" x="264" y="-864.45" font-family="Times,serif" font-size="14.00">iselect</text>
</g>
<!-- imsic_vsint_file_1_mem_seteipnum&#45;&gt;imsic_vsint_file_1_iselect -->
<g id="edge15" class="edge">
<title>imsic_vsint_file_1_mem_seteipnum&#45;&gt;imsic_vsint_file_1_iselect</title>
<path fill="none" stroke="none" d="M187.38,-855.83C187.38,-855.83 225.29,-855.83 225.29,-855.83"/>
<polygon fill="none" stroke="none" points="225.29,-859.33 235.29,-855.83 225.29,-852.33 225.29,-859.33"/>
</g>
<!-- imsic_vsint_file_1_ireg -->
<g id="node32" class="node">
<title>imsic_vsint_file_1_ireg</title>
<polygon fill="none" stroke="black" points="291,-941.5 237,-941.5 237,-905.5 291,-905.5 291,-941.5"/>
<text text-anchor="middle" x="264" y="-918.45" font-family="Times,serif" font-size="14.00">ireg</text>
</g>
<!-- imsic_vsint_file_1_mem_seteipnum&#45;&gt;imsic_vsint_file_1_ireg -->
<g id="edge16" class="edge">
<title>imsic_vsint_file_1_mem_seteipnum&#45;&gt;imsic_vsint_file_1_ireg</title>
<path fill="none" stroke="none" d="M176.75,-864.75C176.75,-887.52 176.75,-923.5 176.75,-923.5 176.75,-923.5 225.36,-923.5 225.36,-923.5"/>
<polygon fill="none" stroke="none" points="225.36,-927 235.36,-923.5 225.36,-920 225.36,-927"/>
</g>
<!-- imsic_pending_3 -->
<g id="node40" class="node">
<title>imsic_pending_3</title>
<polygon fill="none" stroke="black" points="429.75,-985.5 341,-985.5 341,-949.5 429.75,-949.5 429.75,-985.5"/>
<text text-anchor="middle" x="385.38" y="-962.45" font-family="Times,serif" font-size="14.00">pending3[1b]</text>
</g>
<!-- imsic_vsint_file_1_pending&#45;&gt;imsic_pending_3 -->
<g id="edge24" class="edge">
<title>imsic_vsint_file_1_pending&#45;&gt;imsic_pending_3</title>
<path fill="none" stroke="black" d="M305.43,-972.5C305.43,-972.5 329.3,-972.5 329.3,-972.5"/>
<polygon fill="black" stroke="black" points="329.3,-976 339.3,-972.5 329.3,-969 329.3,-976"/>
</g>
<!-- imsic_vsint_file_1_topei&#45;&gt;imsic_vstopei -->
<g id="edge20" class="edge">
<title>imsic_vsint_file_1_topei&#45;&gt;imsic_vstopei</title>
<path fill="none" stroke="black" d="M291.34,-804.23C294.57,-804.23 296.75,-804.23 296.75,-804.23 296.75,-804.23 296.75,-703.5 296.75,-703.5 296.75,-703.5 333.7,-703.5 333.7,-703.5"/>
<polygon fill="black" stroke="black" points="333.7,-707 343.7,-703.5 333.7,-700 333.7,-707"/>
</g>
<!-- imsic_vsint_file_1_iselect&#45;&gt;imsic_vsiselect -->
<g id="edge28" class="edge">
<title>imsic_vsint_file_1_iselect&#45;&gt;imsic_vsiselect</title>
<path fill="none" stroke="black" d="M301.61,-869.5C301.61,-869.5 302.75,-869.5 302.75,-869.5 302.75,-869.5 302.75,-810.97 302.75,-810.97 302.75,-810.97 321.82,-810.97 341.64,-810.97"/>
<polygon fill="black" stroke="black" points="302.85,-866 292.85,-869.5 302.85,-873 302.85,-866"/>
</g>
<!-- imsic_vsint_file_1_ireg&#45;&gt;imsic_vsireg -->
<g id="edge32" class="edge">
<title>imsic_vsint_file_1_ireg&#45;&gt;imsic_vsireg</title>
<path fill="none" stroke="black" d="M302.75,-913.6C302.75,-913.6 336.59,-913.6 336.59,-913.6"/>
<polygon fill="black" stroke="black" points="302.75,-910.1 292.75,-913.6 302.75,-917.1 302.75,-910.1"/>
<polygon fill="black" stroke="black" points="336.59,-917.1 346.59,-913.6 336.59,-910.1 336.59,-917.1"/>
</g>
<!-- imsic_vsint_file_1_eips -->
<g id="node33" class="node">
<title>imsic_vsint_file_1_eips</title>
<polygon fill="none" stroke="black" points="165.5,-941.5 111.5,-941.5 111.5,-905.5 165.5,-905.5 165.5,-941.5"/>
<text text-anchor="middle" x="138.5" y="-918.45" font-family="Times,serif" font-size="14.00">eip[]</text>
</g>
<!-- imsic_vsint_file_1_eies -->
<g id="node34" class="node">
<title>imsic_vsint_file_1_eies</title>
<polygon fill="none" stroke="black" points="165.5,-995.5 111.5,-995.5 111.5,-959.5 165.5,-959.5 165.5,-995.5"/>
<text text-anchor="middle" x="138.5" y="-972.45" font-family="Times,serif" font-size="14.00">eie[]</text>
</g>
<!-- imsic_mtopei&#45;&gt;hart -->
<g id="edge44" class="edge">
<title>imsic_mtopei&#45;&gt;hart</title>
<path fill="none" stroke="black" d="M425.36,-132.5C425.36,-132.5 453.93,-132.5 453.93,-132.5"/>
<polygon fill="black" stroke="black" points="453.93,-136 463.93,-132.5 453.93,-129 453.93,-136"/>
</g>
<!-- imsic_stopei&#45;&gt;hart -->
<g id="edge45" class="edge">
<title>imsic_stopei&#45;&gt;hart</title>
<path fill="none" stroke="black" d="M422.33,-483.5C422.33,-483.5 454.05,-483.5 454.05,-483.5"/>
<polygon fill="black" stroke="black" points="454.05,-487 464.05,-483.5 454.05,-480 454.05,-487"/>
</g>
<!-- imsic_pending_0&#45;&gt;hart -->
<g id="edge40" class="edge">
<title>imsic_pending_0&#45;&gt;hart</title>
<path fill="none" stroke="black" d="M429.98,-74.5C429.98,-74.5 453.8,-74.5 453.8,-74.5"/>
<polygon fill="black" stroke="black" points="453.8,-78 463.8,-74.5 453.8,-71 453.8,-78"/>
</g>
<!-- imsic_pending_1&#45;&gt;hart -->
<g id="edge41" class="edge">
<title>imsic_pending_1&#45;&gt;hart</title>
<path fill="none" stroke="black" d="M429.98,-429.5C429.98,-429.5 453.8,-429.5 453.8,-429.5"/>
<polygon fill="black" stroke="black" points="453.8,-433 463.8,-429.5 453.8,-426 453.8,-433"/>
</g>
<!-- imsic_pending_2&#45;&gt;hart -->
<g id="edge42" class="edge">
<title>imsic_pending_2&#45;&gt;hart</title>
<path fill="none" stroke="black" d="M429.98,-537.5C429.98,-537.5 453.8,-537.5 453.8,-537.5"/>
<polygon fill="black" stroke="black" points="453.8,-541 463.8,-537.5 453.8,-534 453.8,-541"/>
</g>
<!-- imsic_pending_3&#45;&gt;hart -->
<g id="edge43" class="edge">
<title>imsic_pending_3&#45;&gt;hart</title>
<path fill="none" stroke="black" d="M429.98,-967.5C459.48,-967.5 492.75,-967.5 492.75,-967.5 492.75,-967.5 492.75,-900.29 492.75,-900.29"/>
<polygon fill="black" stroke="black" points="496.25,-900.29 492.75,-890.29 489.25,-900.29 496.25,-900.29"/>
</g>
<!-- imsic_miselect&#45;&gt;hart -->
<g id="edge47" class="edge">
<title>imsic_miselect&#45;&gt;hart</title>
<path fill="none" stroke="black" d="M440.56,-190.5C440.56,-190.5 465.45,-190.5 465.45,-190.5"/>
<polygon fill="black" stroke="black" points="440.56,-187 430.56,-190.5 440.56,-194 440.56,-187"/>
</g>
<!-- imsic_siselect&#45;&gt;hart -->
<g id="edge48" class="edge">
<title>imsic_siselect&#45;&gt;hart</title>
<path fill="none" stroke="black" d="M437.48,-321.5C437.48,-321.5 465.44,-321.5 465.44,-321.5"/>
<polygon fill="black" stroke="black" points="437.48,-318 427.48,-321.5 437.48,-325 437.48,-318"/>
</g>
<!-- imsic_mireg&#45;&gt;hart -->
<g id="edge50" class="edge">
<title>imsic_mireg&#45;&gt;hart</title>
<path fill="none" stroke="black" d="M433.84,-259.5C433.84,-259.5 454.05,-259.5 454.05,-259.5"/>
<polygon fill="black" stroke="black" points="433.84,-256 423.84,-259.5 433.84,-263 433.84,-256"/>
<polygon fill="black" stroke="black" points="454.05,-263 464.05,-259.5 454.05,-256 454.05,-263"/>
</g>
<!-- imsic_sireg&#45;&gt;hart -->
<g id="edge51" class="edge">
<title>imsic_sireg&#45;&gt;hart</title>
<path fill="none" stroke="black" d="M430.86,-375.5C430.86,-375.5 453.93,-375.5 453.93,-375.5"/>
<polygon fill="black" stroke="black" points="430.86,-372 420.86,-375.5 430.86,-379 430.86,-372"/>
<polygon fill="black" stroke="black" points="453.93,-379 463.93,-375.5 453.93,-372 453.93,-379"/>
</g>
</g>
</svg>
