<?xml version="1.0" encoding="UTF-8" standalone="no"?>
<!DOCTYPE svg PUBLIC "-//W3C//DTD SVG 1.1//EN"
 "http://www.w3.org/Graphics/SVG/1.1/DTD/svg11.dtd">
<!-- Generated by graphviz version 10.0.1 (0)
 -->
<!-- Title: G Pages: 1 -->
<svg width="397px" height="1579px"
 viewBox="0.00 0.00 396.50 1578.50" xmlns="http://www.w3.org/2000/svg" xmlns:xlink="http://www.w3.org/1999/xlink">
<g id="graph0" class="graph" transform="scale(1 1) rotate(0) translate(4 1574.5)">
<title>G</title>
<text text-anchor="middle" x="194.25" y="-7.2" font-family="Times,serif" font-size="14.00">IMSIC Logic Arrangement</text>
<g id="clust1" class="cluster">
<title>group_0</title>
<polygon fill="#dae8fc" stroke="#6c8ebf" points="93.25,-801.5 93.25,-1562.5 380.5,-1562.5 380.5,-801.5 93.25,-801.5"/>
<text text-anchor="middle" x="236.88" y="-1545.2" font-family="Times,serif" font-size="14.00">Group 0</text>
</g>
<g id="clust2" class="cluster">
<title>imsichart_0_0</title>
<polygon fill="#d5e8d4" stroke="#82b366" points="183,-813.5 183,-1165.5 372.5,-1165.5 372.5,-813.5 183,-813.5"/>
<text text-anchor="middle" x="277.75" y="-1148.2" font-family="Times,serif" font-size="14.00">Member 00</text>
</g>
<g id="clust3" class="cluster">
<title>imsic_0_0</title>
<polygon fill="#f8cecc" stroke="#b85450" points="191,-821.5 191,-1132.5 290.5,-1132.5 290.5,-821.5 191,-821.5"/>
<text text-anchor="middle" x="240.75" y="-1115.2" font-family="Times,serif" font-size="14.00">IMSIC 00</text>
</g>
<g id="clust4" class="cluster">
<title>imsic_0_0_m</title>
<polygon fill="#ffe6cc" stroke="#d79b00" points="205.75,-829.5 205.75,-906.5 275.75,-906.5 275.75,-829.5 205.75,-829.5"/>
<text text-anchor="middle" x="240.75" y="-889.2" font-family="Times,serif" font-size="14.00">M Level</text>
</g>
<g id="clust5" class="cluster">
<title>imsic_0_0_s</title>
<polygon fill="#ffe6cc" stroke="#d79b00" points="199,-914.5 199,-1099.5 282.5,-1099.5 282.5,-914.5 199,-914.5"/>
<text text-anchor="middle" x="240.75" y="-1082.2" font-family="Times,serif" font-size="14.00">S Level</text>
</g>
<g id="clust6" class="cluster">
<title>imsichart_0_1</title>
<polygon fill="#d5e8d4" stroke="#82b366" points="183,-1173.5 183,-1525.5 372.5,-1525.5 372.5,-1173.5 183,-1173.5"/>
<text text-anchor="middle" x="277.75" y="-1508.2" font-family="Times,serif" font-size="14.00">Member 01</text>
</g>
<g id="clust7" class="cluster">
<title>imsic_0_1</title>
<polygon fill="#f8cecc" stroke="#b85450" points="191,-1181.5 191,-1492.5 290.5,-1492.5 290.5,-1181.5 191,-1181.5"/>
<text text-anchor="middle" x="240.75" y="-1475.2" font-family="Times,serif" font-size="14.00">IMSIC 01</text>
</g>
<g id="clust8" class="cluster">
<title>imsic_0_1_m</title>
<polygon fill="#ffe6cc" stroke="#d79b00" points="205.75,-1189.5 205.75,-1266.5 275.75,-1266.5 275.75,-1189.5 205.75,-1189.5"/>
<text text-anchor="middle" x="240.75" y="-1249.2" font-family="Times,serif" font-size="14.00">M Level</text>
</g>
<g id="clust9" class="cluster">
<title>imsic_0_1_s</title>
<polygon fill="#ffe6cc" stroke="#d79b00" points="199,-1274.5 199,-1459.5 282.5,-1459.5 282.5,-1274.5 199,-1274.5"/>
<text text-anchor="middle" x="240.75" y="-1442.2" font-family="Times,serif" font-size="14.00">S Level</text>
</g>
<g id="clust10" class="cluster">
<title>group_1</title>
<polygon fill="#dae8fc" stroke="#6c8ebf" points="93.25,-32.5 93.25,-793.5 380.5,-793.5 380.5,-32.5 93.25,-32.5"/>
<text text-anchor="middle" x="236.88" y="-776.2" font-family="Times,serif" font-size="14.00">Group 1</text>
</g>
<g id="clust11" class="cluster">
<title>imsichart_1_0</title>
<polygon fill="#d5e8d4" stroke="#82b366" points="183,-44.5 183,-396.5 372.5,-396.5 372.5,-44.5 183,-44.5"/>
<text text-anchor="middle" x="277.75" y="-379.2" font-family="Times,serif" font-size="14.00">Member 10</text>
</g>
<g id="clust12" class="cluster">
<title>imsic_1_0</title>
<polygon fill="#f8cecc" stroke="#b85450" points="191,-52.5 191,-363.5 290.5,-363.5 290.5,-52.5 191,-52.5"/>
<text text-anchor="middle" x="240.75" y="-346.2" font-family="Times,serif" font-size="14.00">IMSIC 10</text>
</g>
<g id="clust13" class="cluster">
<title>imsic_1_0_m</title>
<polygon fill="#ffe6cc" stroke="#d79b00" points="205.75,-60.5 205.75,-137.5 275.75,-137.5 275.75,-60.5 205.75,-60.5"/>
<text text-anchor="middle" x="240.75" y="-120.2" font-family="Times,serif" font-size="14.00">M Level</text>
</g>
<g id="clust14" class="cluster">
<title>imsic_1_0_s</title>
<polygon fill="#ffe6cc" stroke="#d79b00" points="199,-145.5 199,-330.5 282.5,-330.5 282.5,-145.5 199,-145.5"/>
<text text-anchor="middle" x="240.75" y="-313.2" font-family="Times,serif" font-size="14.00">S Level</text>
</g>
<g id="clust15" class="cluster">
<title>imsichart_1_1</title>
<polygon fill="#d5e8d4" stroke="#82b366" points="183,-404.5 183,-756.5 372.5,-756.5 372.5,-404.5 183,-404.5"/>
<text text-anchor="middle" x="277.75" y="-739.2" font-family="Times,serif" font-size="14.00">Member 11</text>
</g>
<g id="clust16" class="cluster">
<title>imsic_1_1</title>
<polygon fill="#f8cecc" stroke="#b85450" points="191,-412.5 191,-723.5 290.5,-723.5 290.5,-412.5 191,-412.5"/>
<text text-anchor="middle" x="240.75" y="-706.2" font-family="Times,serif" font-size="14.00">IMSIC 11</text>
</g>
<g id="clust17" class="cluster">
<title>imsic_1_1_m</title>
<polygon fill="#ffe6cc" stroke="#d79b00" points="205.75,-420.5 205.75,-497.5 275.75,-497.5 275.75,-420.5 205.75,-420.5"/>
<text text-anchor="middle" x="240.75" y="-480.2" font-family="Times,serif" font-size="14.00">M Level</text>
</g>
<g id="clust18" class="cluster">
<title>imsic_1_1_s</title>
<polygon fill="#ffe6cc" stroke="#d79b00" points="199,-505.5 199,-690.5 282.5,-690.5 282.5,-505.5 199,-505.5"/>
<text text-anchor="middle" x="240.75" y="-673.2" font-family="Times,serif" font-size="14.00">S Level</text>
</g>
<!-- bus -->
<g id="node1" class="node">
<title>bus</title>
<polygon fill="none" stroke="black" points="65.25,-1504.5 0,-1504.5 0,-64.5 65.25,-64.5 65.25,-1504.5"/>
<text text-anchor="middle" x="32.62" y="-779.45" font-family="Times,serif" font-size="14.00">System Bus</text>
</g>
<!-- bus_0 -->
<g id="node2" class="node">
<title>bus_0</title>
<polygon fill="none" stroke="black" points="171,-1529.5 101.25,-1529.5 101.25,-809.5 171,-809.5 171,-1529.5"/>
<text text-anchor="middle" x="136.12" y="-1164.45" font-family="Times,serif" font-size="14.00">Group Bus 0</text>
</g>
<!-- bus&#45;&gt;bus_0 -->
<g id="edge17" class="edge">
<title>bus&#45;&gt;bus_0</title>
<path fill="none" stroke="black" d="M65.66,-1157C65.66,-1155 89.39,-1155 89.39,-1157"/>
<path fill="none" stroke="none" d="M65.66,-1157C65.66,-1157 89.39,-1157 89.39,-1157"/>
<path fill="none" stroke="black" d="M65.66,-1157C65.66,-1159 89.39,-1159 89.39,-1157"/>
<polygon fill="black" stroke="black" points="89.39,-1160.5 99.39,-1157 89.39,-1153.5 89.39,-1160.5"/>
</g>
<!-- bus_1 -->
<g id="node13" class="node">
<title>bus_1</title>
<polygon fill="none" stroke="black" points="171,-760.5 101.25,-760.5 101.25,-40.5 171,-40.5 171,-760.5"/>
<text text-anchor="middle" x="136.12" y="-395.45" font-family="Times,serif" font-size="14.00">Group Bus 1</text>
</g>
<!-- bus&#45;&gt;bus_1 -->
<g id="edge34" class="edge">
<title>bus&#45;&gt;bus_1</title>
<path fill="none" stroke="black" d="M65.66,-412.5C65.66,-410.5 89.39,-410.5 89.39,-412.5"/>
<path fill="none" stroke="none" d="M65.66,-412.5C65.66,-412.5 89.39,-412.5 89.39,-412.5"/>
<path fill="none" stroke="black" d="M65.66,-412.5C65.66,-414.5 89.39,-414.5 89.39,-412.5"/>
<polygon fill="black" stroke="black" points="89.39,-416 99.39,-412.5 89.39,-409 89.39,-416"/>
</g>
<!-- imsic_0_0_intfile_m -->
<g id="node4" class="node">
<title>imsic_0_0_intfile_m</title>
<polygon fill="none" stroke="black" points="267.75,-873.5 213.75,-873.5 213.75,-837.5 267.75,-837.5 267.75,-873.5"/>
<text text-anchor="middle" x="240.75" y="-850.45" font-family="Times,serif" font-size="14.00">M IntFile</text>
</g>
<!-- bus_0&#45;&gt;imsic_0_0_intfile_m -->
<g id="edge5" class="edge">
<title>bus_0&#45;&gt;imsic_0_0_intfile_m</title>
<path fill="none" stroke="black" d="M171.25,-855.5C171.25,-855.5 201.97,-855.5 201.97,-855.5"/>
<polygon fill="black" stroke="black" points="201.97,-859 211.97,-855.5 201.97,-852 201.97,-859"/>
</g>
<!-- imsic_0_0_intfile_s -->
<g id="node5" class="node">
<title>imsic_0_0_intfile_s</title>
<polygon fill="none" stroke="black" points="267.75,-958.5 213.75,-958.5 213.75,-922.5 267.75,-922.5 267.75,-958.5"/>
<text text-anchor="middle" x="240.75" y="-935.45" font-family="Times,serif" font-size="14.00">S IntFile</text>
</g>
<!-- bus_0&#45;&gt;imsic_0_0_intfile_s -->
<g id="edge6" class="edge">
<title>bus_0&#45;&gt;imsic_0_0_intfile_s</title>
<path fill="none" stroke="black" d="M171.25,-940.5C171.25,-940.5 201.97,-940.5 201.97,-940.5"/>
<polygon fill="black" stroke="black" points="201.97,-944 211.97,-940.5 201.97,-937 201.97,-944"/>
</g>
<!-- imsic_0_0_intfile_vs_0 -->
<g id="node6" class="node">
<title>imsic_0_0_intfile_vs_0</title>
<polygon fill="none" stroke="black" points="274.5,-1012.5 207,-1012.5 207,-976.5 274.5,-976.5 274.5,-1012.5"/>
<text text-anchor="middle" x="240.75" y="-989.45" font-family="Times,serif" font-size="14.00">VS IntFile 0</text>
</g>
<!-- bus_0&#45;&gt;imsic_0_0_intfile_vs_0 -->
<g id="edge7" class="edge">
<title>bus_0&#45;&gt;imsic_0_0_intfile_vs_0</title>
<path fill="none" stroke="black" d="M171.25,-994.5C171.25,-994.5 195.09,-994.5 195.09,-994.5"/>
<polygon fill="black" stroke="black" points="195.09,-998 205.09,-994.5 195.09,-991 195.09,-998"/>
</g>
<!-- imsic_0_0_intfile_vs_1 -->
<g id="node7" class="node">
<title>imsic_0_0_intfile_vs_1</title>
<polygon fill="none" stroke="black" points="274.5,-1066.5 207,-1066.5 207,-1030.5 274.5,-1030.5 274.5,-1066.5"/>
<text text-anchor="middle" x="240.75" y="-1043.45" font-family="Times,serif" font-size="14.00">VS IntFile 1</text>
</g>
<!-- bus_0&#45;&gt;imsic_0_0_intfile_vs_1 -->
<g id="edge8" class="edge">
<title>bus_0&#45;&gt;imsic_0_0_intfile_vs_1</title>
<path fill="none" stroke="black" d="M171.25,-1048.5C171.25,-1048.5 195.09,-1048.5 195.09,-1048.5"/>
<polygon fill="black" stroke="black" points="195.09,-1052 205.09,-1048.5 195.09,-1045 195.09,-1052"/>
</g>
<!-- imsic_0_1_intfile_m -->
<g id="node9" class="node">
<title>imsic_0_1_intfile_m</title>
<polygon fill="none" stroke="black" points="267.75,-1233.5 213.75,-1233.5 213.75,-1197.5 267.75,-1197.5 267.75,-1233.5"/>
<text text-anchor="middle" x="240.75" y="-1210.45" font-family="Times,serif" font-size="14.00">M IntFile</text>
</g>
<!-- bus_0&#45;&gt;imsic_0_1_intfile_m -->
<g id="edge13" class="edge">
<title>bus_0&#45;&gt;imsic_0_1_intfile_m</title>
<path fill="none" stroke="black" d="M171.25,-1215.5C171.25,-1215.5 201.97,-1215.5 201.97,-1215.5"/>
<polygon fill="black" stroke="black" points="201.97,-1219 211.97,-1215.5 201.97,-1212 201.97,-1219"/>
</g>
<!-- imsic_0_1_intfile_s -->
<g id="node10" class="node">
<title>imsic_0_1_intfile_s</title>
<polygon fill="none" stroke="black" points="267.75,-1318.5 213.75,-1318.5 213.75,-1282.5 267.75,-1282.5 267.75,-1318.5"/>
<text text-anchor="middle" x="240.75" y="-1295.45" font-family="Times,serif" font-size="14.00">S IntFile</text>
</g>
<!-- bus_0&#45;&gt;imsic_0_1_intfile_s -->
<g id="edge14" class="edge">
<title>bus_0&#45;&gt;imsic_0_1_intfile_s</title>
<path fill="none" stroke="black" d="M171.25,-1300.5C171.25,-1300.5 201.97,-1300.5 201.97,-1300.5"/>
<polygon fill="black" stroke="black" points="201.97,-1304 211.97,-1300.5 201.97,-1297 201.97,-1304"/>
</g>
<!-- imsic_0_1_intfile_vs_0 -->
<g id="node11" class="node">
<title>imsic_0_1_intfile_vs_0</title>
<polygon fill="none" stroke="black" points="274.5,-1372.5 207,-1372.5 207,-1336.5 274.5,-1336.5 274.5,-1372.5"/>
<text text-anchor="middle" x="240.75" y="-1349.45" font-family="Times,serif" font-size="14.00">VS IntFile 0</text>
</g>
<!-- bus_0&#45;&gt;imsic_0_1_intfile_vs_0 -->
<g id="edge15" class="edge">
<title>bus_0&#45;&gt;imsic_0_1_intfile_vs_0</title>
<path fill="none" stroke="black" d="M171.25,-1354.5C171.25,-1354.5 195.09,-1354.5 195.09,-1354.5"/>
<polygon fill="black" stroke="black" points="195.09,-1358 205.09,-1354.5 195.09,-1351 195.09,-1358"/>
</g>
<!-- imsic_0_1_intfile_vs_1 -->
<g id="node12" class="node">
<title>imsic_0_1_intfile_vs_1</title>
<polygon fill="none" stroke="black" points="274.5,-1426.5 207,-1426.5 207,-1390.5 274.5,-1390.5 274.5,-1426.5"/>
<text text-anchor="middle" x="240.75" y="-1403.45" font-family="Times,serif" font-size="14.00">VS IntFile 1</text>
</g>
<!-- bus_0&#45;&gt;imsic_0_1_intfile_vs_1 -->
<g id="edge16" class="edge">
<title>bus_0&#45;&gt;imsic_0_1_intfile_vs_1</title>
<path fill="none" stroke="black" d="M171.25,-1408.5C171.25,-1408.5 195.09,-1408.5 195.09,-1408.5"/>
<polygon fill="black" stroke="black" points="195.09,-1412 205.09,-1408.5 195.09,-1405 195.09,-1412"/>
</g>
<!-- imsichart_0_0_hart -->
<g id="node3" class="node">
<title>imsichart_0_0_hart</title>
<polygon fill="none" stroke="black" points="364.5,-1120.5 310.5,-1120.5 310.5,-832.5 364.5,-832.5 364.5,-1120.5"/>
<text text-anchor="middle" x="337.5" y="-971.45" font-family="Times,serif" font-size="14.00">Hart 00</text>
</g>
<!-- imsic_0_0_intfile_m&#45;&gt;imsichart_0_0_hart -->
<g id="edge1" class="edge">
<title>imsic_0_0_intfile_m&#45;&gt;imsichart_0_0_hart</title>
<path fill="none" stroke="black" d="M268.22,-855.5C268.22,-855.5 298.79,-855.5 298.79,-855.5"/>
<polygon fill="black" stroke="black" points="298.79,-859 308.79,-855.5 298.79,-852 298.79,-859"/>
</g>
<!-- imsic_0_0_intfile_s&#45;&gt;imsichart_0_0_hart -->
<g id="edge2" class="edge">
<title>imsic_0_0_intfile_s&#45;&gt;imsichart_0_0_hart</title>
<path fill="none" stroke="black" d="M268.22,-940.5C268.22,-940.5 298.79,-940.5 298.79,-940.5"/>
<polygon fill="black" stroke="black" points="298.79,-944 308.79,-940.5 298.79,-937 298.79,-944"/>
</g>
<!-- imsic_0_0_intfile_vs_0&#45;&gt;imsichart_0_0_hart -->
<g id="edge3" class="edge">
<title>imsic_0_0_intfile_vs_0&#45;&gt;imsichart_0_0_hart</title>
<path fill="none" stroke="black" d="M274.86,-994.5C274.86,-994.5 298.55,-994.5 298.55,-994.5"/>
<polygon fill="black" stroke="black" points="298.55,-998 308.55,-994.5 298.55,-991 298.55,-998"/>
</g>
<!-- imsic_0_0_intfile_vs_1&#45;&gt;imsichart_0_0_hart -->
<g id="edge4" class="edge">
<title>imsic_0_0_intfile_vs_1&#45;&gt;imsichart_0_0_hart</title>
<path fill="none" stroke="black" d="M274.86,-1048.5C274.86,-1048.5 298.55,-1048.5 298.55,-1048.5"/>
<polygon fill="black" stroke="black" points="298.55,-1052 308.55,-1048.5 298.55,-1045 298.55,-1052"/>
</g>
<!-- imsichart_0_1_hart -->
<g id="node8" class="node">
<title>imsichart_0_1_hart</title>
<polygon fill="none" stroke="black" points="364.5,-1480.5 310.5,-1480.5 310.5,-1192.5 364.5,-1192.5 364.5,-1480.5"/>
<text text-anchor="middle" x="337.5" y="-1331.45" font-family="Times,serif" font-size="14.00">Hart 01</text>
</g>
<!-- imsic_0_1_intfile_m&#45;&gt;imsichart_0_1_hart -->
<g id="edge9" class="edge">
<title>imsic_0_1_intfile_m&#45;&gt;imsichart_0_1_hart</title>
<path fill="none" stroke="black" d="M268.22,-1215.5C268.22,-1215.5 298.79,-1215.5 298.79,-1215.5"/>
<polygon fill="black" stroke="black" points="298.79,-1219 308.79,-1215.5 298.79,-1212 298.79,-1219"/>
</g>
<!-- imsic_0_1_intfile_s&#45;&gt;imsichart_0_1_hart -->
<g id="edge10" class="edge">
<title>imsic_0_1_intfile_s&#45;&gt;imsichart_0_1_hart</title>
<path fill="none" stroke="black" d="M268.22,-1300.5C268.22,-1300.5 298.79,-1300.5 298.79,-1300.5"/>
<polygon fill="black" stroke="black" points="298.79,-1304 308.79,-1300.5 298.79,-1297 298.79,-1304"/>
</g>
<!-- imsic_0_1_intfile_vs_0&#45;&gt;imsichart_0_1_hart -->
<g id="edge11" class="edge">
<title>imsic_0_1_intfile_vs_0&#45;&gt;imsichart_0_1_hart</title>
<path fill="none" stroke="black" d="M274.86,-1354.5C274.86,-1354.5 298.55,-1354.5 298.55,-1354.5"/>
<polygon fill="black" stroke="black" points="298.55,-1358 308.55,-1354.5 298.55,-1351 298.55,-1358"/>
</g>
<!-- imsic_0_1_intfile_vs_1&#45;&gt;imsichart_0_1_hart -->
<g id="edge12" class="edge">
<title>imsic_0_1_intfile_vs_1&#45;&gt;imsichart_0_1_hart</title>
<path fill="none" stroke="black" d="M274.86,-1408.5C274.86,-1408.5 298.55,-1408.5 298.55,-1408.5"/>
<polygon fill="black" stroke="black" points="298.55,-1412 308.55,-1408.5 298.55,-1405 298.55,-1412"/>
</g>
<!-- imsic_1_0_intfile_m -->
<g id="node15" class="node">
<title>imsic_1_0_intfile_m</title>
<polygon fill="none" stroke="black" points="267.75,-104.5 213.75,-104.5 213.75,-68.5 267.75,-68.5 267.75,-104.5"/>
<text text-anchor="middle" x="240.75" y="-81.45" font-family="Times,serif" font-size="14.00">M IntFile</text>
</g>
<!-- bus_1&#45;&gt;imsic_1_0_intfile_m -->
<g id="edge22" class="edge">
<title>bus_1&#45;&gt;imsic_1_0_intfile_m</title>
<path fill="none" stroke="black" d="M171.25,-86.5C171.25,-86.5 201.97,-86.5 201.97,-86.5"/>
<polygon fill="black" stroke="black" points="201.97,-90 211.97,-86.5 201.97,-83 201.97,-90"/>
</g>
<!-- imsic_1_0_intfile_s -->
<g id="node16" class="node">
<title>imsic_1_0_intfile_s</title>
<polygon fill="none" stroke="black" points="267.75,-189.5 213.75,-189.5 213.75,-153.5 267.75,-153.5 267.75,-189.5"/>
<text text-anchor="middle" x="240.75" y="-166.45" font-family="Times,serif" font-size="14.00">S IntFile</text>
</g>
<!-- bus_1&#45;&gt;imsic_1_0_intfile_s -->
<g id="edge23" class="edge">
<title>bus_1&#45;&gt;imsic_1_0_intfile_s</title>
<path fill="none" stroke="black" d="M171.25,-171.5C171.25,-171.5 201.97,-171.5 201.97,-171.5"/>
<polygon fill="black" stroke="black" points="201.97,-175 211.97,-171.5 201.97,-168 201.97,-175"/>
</g>
<!-- imsic_1_0_intfile_vs_0 -->
<g id="node17" class="node">
<title>imsic_1_0_intfile_vs_0</title>
<polygon fill="none" stroke="black" points="274.5,-243.5 207,-243.5 207,-207.5 274.5,-207.5 274.5,-243.5"/>
<text text-anchor="middle" x="240.75" y="-220.45" font-family="Times,serif" font-size="14.00">VS IntFile 0</text>
</g>
<!-- bus_1&#45;&gt;imsic_1_0_intfile_vs_0 -->
<g id="edge24" class="edge">
<title>bus_1&#45;&gt;imsic_1_0_intfile_vs_0</title>
<path fill="none" stroke="black" d="M171.25,-225.5C171.25,-225.5 195.09,-225.5 195.09,-225.5"/>
<polygon fill="black" stroke="black" points="195.09,-229 205.09,-225.5 195.09,-222 195.09,-229"/>
</g>
<!-- imsic_1_0_intfile_vs_1 -->
<g id="node18" class="node">
<title>imsic_1_0_intfile_vs_1</title>
<polygon fill="none" stroke="black" points="274.5,-297.5 207,-297.5 207,-261.5 274.5,-261.5 274.5,-297.5"/>
<text text-anchor="middle" x="240.75" y="-274.45" font-family="Times,serif" font-size="14.00">VS IntFile 1</text>
</g>
<!-- bus_1&#45;&gt;imsic_1_0_intfile_vs_1 -->
<g id="edge25" class="edge">
<title>bus_1&#45;&gt;imsic_1_0_intfile_vs_1</title>
<path fill="none" stroke="black" d="M171.25,-279.5C171.25,-279.5 195.09,-279.5 195.09,-279.5"/>
<polygon fill="black" stroke="black" points="195.09,-283 205.09,-279.5 195.09,-276 195.09,-283"/>
</g>
<!-- imsic_1_1_intfile_m -->
<g id="node20" class="node">
<title>imsic_1_1_intfile_m</title>
<polygon fill="none" stroke="black" points="267.75,-464.5 213.75,-464.5 213.75,-428.5 267.75,-428.5 267.75,-464.5"/>
<text text-anchor="middle" x="240.75" y="-441.45" font-family="Times,serif" font-size="14.00">M IntFile</text>
</g>
<!-- bus_1&#45;&gt;imsic_1_1_intfile_m -->
<g id="edge30" class="edge">
<title>bus_1&#45;&gt;imsic_1_1_intfile_m</title>
<path fill="none" stroke="black" d="M171.25,-446.5C171.25,-446.5 201.97,-446.5 201.97,-446.5"/>
<polygon fill="black" stroke="black" points="201.97,-450 211.97,-446.5 201.97,-443 201.97,-450"/>
</g>
<!-- imsic_1_1_intfile_s -->
<g id="node21" class="node">
<title>imsic_1_1_intfile_s</title>
<polygon fill="none" stroke="black" points="267.75,-549.5 213.75,-549.5 213.75,-513.5 267.75,-513.5 267.75,-549.5"/>
<text text-anchor="middle" x="240.75" y="-526.45" font-family="Times,serif" font-size="14.00">S IntFile</text>
</g>
<!-- bus_1&#45;&gt;imsic_1_1_intfile_s -->
<g id="edge31" class="edge">
<title>bus_1&#45;&gt;imsic_1_1_intfile_s</title>
<path fill="none" stroke="black" d="M171.25,-531.5C171.25,-531.5 201.97,-531.5 201.97,-531.5"/>
<polygon fill="black" stroke="black" points="201.97,-535 211.97,-531.5 201.97,-528 201.97,-535"/>
</g>
<!-- imsic_1_1_intfile_vs_0 -->
<g id="node22" class="node">
<title>imsic_1_1_intfile_vs_0</title>
<polygon fill="none" stroke="black" points="274.5,-603.5 207,-603.5 207,-567.5 274.5,-567.5 274.5,-603.5"/>
<text text-anchor="middle" x="240.75" y="-580.45" font-family="Times,serif" font-size="14.00">VS IntFile 0</text>
</g>
<!-- bus_1&#45;&gt;imsic_1_1_intfile_vs_0 -->
<g id="edge32" class="edge">
<title>bus_1&#45;&gt;imsic_1_1_intfile_vs_0</title>
<path fill="none" stroke="black" d="M171.25,-585.5C171.25,-585.5 195.09,-585.5 195.09,-585.5"/>
<polygon fill="black" stroke="black" points="195.09,-589 205.09,-585.5 195.09,-582 195.09,-589"/>
</g>
<!-- imsic_1_1_intfile_vs_1 -->
<g id="node23" class="node">
<title>imsic_1_1_intfile_vs_1</title>
<polygon fill="none" stroke="black" points="274.5,-657.5 207,-657.5 207,-621.5 274.5,-621.5 274.5,-657.5"/>
<text text-anchor="middle" x="240.75" y="-634.45" font-family="Times,serif" font-size="14.00">VS IntFile 1</text>
</g>
<!-- bus_1&#45;&gt;imsic_1_1_intfile_vs_1 -->
<g id="edge33" class="edge">
<title>bus_1&#45;&gt;imsic_1_1_intfile_vs_1</title>
<path fill="none" stroke="black" d="M171.25,-639.5C171.25,-639.5 195.09,-639.5 195.09,-639.5"/>
<polygon fill="black" stroke="black" points="195.09,-643 205.09,-639.5 195.09,-636 195.09,-643"/>
</g>
<!-- imsichart_1_0_hart -->
<g id="node14" class="node">
<title>imsichart_1_0_hart</title>
<polygon fill="none" stroke="black" points="364.5,-351.5 310.5,-351.5 310.5,-63.5 364.5,-63.5 364.5,-351.5"/>
<text text-anchor="middle" x="337.5" y="-202.45" font-family="Times,serif" font-size="14.00">Hart 10</text>
</g>
<!-- imsic_1_0_intfile_m&#45;&gt;imsichart_1_0_hart -->
<g id="edge18" class="edge">
<title>imsic_1_0_intfile_m&#45;&gt;imsichart_1_0_hart</title>
<path fill="none" stroke="black" d="M268.22,-86.5C268.22,-86.5 298.79,-86.5 298.79,-86.5"/>
<polygon fill="black" stroke="black" points="298.79,-90 308.79,-86.5 298.79,-83 298.79,-90"/>
</g>
<!-- imsic_1_0_intfile_s&#45;&gt;imsichart_1_0_hart -->
<g id="edge19" class="edge">
<title>imsic_1_0_intfile_s&#45;&gt;imsichart_1_0_hart</title>
<path fill="none" stroke="black" d="M268.22,-171.5C268.22,-171.5 298.79,-171.5 298.79,-171.5"/>
<polygon fill="black" stroke="black" points="298.79,-175 308.79,-171.5 298.79,-168 298.79,-175"/>
</g>
<!-- imsic_1_0_intfile_vs_0&#45;&gt;imsichart_1_0_hart -->
<g id="edge20" class="edge">
<title>imsic_1_0_intfile_vs_0&#45;&gt;imsichart_1_0_hart</title>
<path fill="none" stroke="black" d="M274.86,-225.5C274.86,-225.5 298.55,-225.5 298.55,-225.5"/>
<polygon fill="black" stroke="black" points="298.55,-229 308.55,-225.5 298.55,-222 298.55,-229"/>
</g>
<!-- imsic_1_0_intfile_vs_1&#45;&gt;imsichart_1_0_hart -->
<g id="edge21" class="edge">
<title>imsic_1_0_intfile_vs_1&#45;&gt;imsichart_1_0_hart</title>
<path fill="none" stroke="black" d="M274.86,-279.5C274.86,-279.5 298.55,-279.5 298.55,-279.5"/>
<polygon fill="black" stroke="black" points="298.55,-283 308.55,-279.5 298.55,-276 298.55,-283"/>
</g>
<!-- imsichart_1_1_hart -->
<g id="node19" class="node">
<title>imsichart_1_1_hart</title>
<polygon fill="none" stroke="black" points="364.5,-711.5 310.5,-711.5 310.5,-423.5 364.5,-423.5 364.5,-711.5"/>
<text text-anchor="middle" x="337.5" y="-562.45" font-family="Times,serif" font-size="14.00">Hart 11</text>
</g>
<!-- imsic_1_1_intfile_m&#45;&gt;imsichart_1_1_hart -->
<g id="edge26" class="edge">
<title>imsic_1_1_intfile_m&#45;&gt;imsichart_1_1_hart</title>
<path fill="none" stroke="black" d="M268.22,-446.5C268.22,-446.5 298.79,-446.5 298.79,-446.5"/>
<polygon fill="black" stroke="black" points="298.79,-450 308.79,-446.5 298.79,-443 298.79,-450"/>
</g>
<!-- imsic_1_1_intfile_s&#45;&gt;imsichart_1_1_hart -->
<g id="edge27" class="edge">
<title>imsic_1_1_intfile_s&#45;&gt;imsichart_1_1_hart</title>
<path fill="none" stroke="black" d="M268.22,-531.5C268.22,-531.5 298.79,-531.5 298.79,-531.5"/>
<polygon fill="black" stroke="black" points="298.79,-535 308.79,-531.5 298.79,-528 298.79,-535"/>
</g>
<!-- imsic_1_1_intfile_vs_0&#45;&gt;imsichart_1_1_hart -->
<g id="edge28" class="edge">
<title>imsic_1_1_intfile_vs_0&#45;&gt;imsichart_1_1_hart</title>
<path fill="none" stroke="black" d="M274.86,-585.5C274.86,-585.5 298.55,-585.5 298.55,-585.5"/>
<polygon fill="black" stroke="black" points="298.55,-589 308.55,-585.5 298.55,-582 298.55,-589"/>
</g>
<!-- imsic_1_1_intfile_vs_1&#45;&gt;imsichart_1_1_hart -->
<g id="edge29" class="edge">
<title>imsic_1_1_intfile_vs_1&#45;&gt;imsichart_1_1_hart</title>
<path fill="none" stroke="black" d="M274.86,-639.5C274.86,-639.5 298.55,-639.5 298.55,-639.5"/>
<polygon fill="black" stroke="black" points="298.55,-643 308.55,-639.5 298.55,-636 298.55,-643"/>
</g>
</g>
</svg>
