<?xml version="1.0" encoding="UTF-8" standalone="no"?>
<!DOCTYPE svg PUBLIC "-//W3C//DTD SVG 1.1//EN"
 "http://www.w3.org/Graphics/SVG/1.1/DTD/svg11.dtd">
<!-- Generated by graphviz version 10.0.1 (0)
 -->
<!-- Pages: 1 -->
<svg width="594px" height="403px"
 viewBox="0.00 0.00 594.00 403.00" xmlns="http://www.w3.org/2000/svg" xmlns:xlink="http://www.w3.org/1999/xlink">
<g id="graph0" class="graph" transform="scale(1 1) rotate(0) translate(4 399)">
<text text-anchor="middle" x="293" y="-7.2" font-family="Times,serif" font-size="14.00">Files and Classes in ChiselAIA</text>
<g id="clust1" class="cluster">
<title>legend</title>
<polygon fill="none" stroke="gray" points="160,-289.5 160,-387 402,-387 402,-289.5 160,-289.5"/>
<text text-anchor="middle" x="281" y="-369.7" font-family="Times,serif" font-size="14.00">Legend</text>
</g>
<g id="clust2" class="cluster">
<title>aplic_scala</title>
<polygon fill="none" stroke="black" points="8,-40.5 8,-281.5 274,-281.5 274,-40.5 8,-40.5"/>
<text text-anchor="middle" x="141" y="-264.2" font-family="Times,serif" font-size="14.00">APLIC.scala</text>
</g>
<g id="clust3" class="cluster">
<title>%5</title>
<polygon fill="none" stroke="black" points="16,-48.5 16,-125 266,-125 266,-48.5 16,-48.5"/>
<text text-anchor="middle" x="141" y="-107.7" font-family="Times,serif" font-size="14.00">APLIC.scala</text>
</g>
<g id="clust4" class="cluster">
<title>imsic_scala</title>
<polygon fill="none" stroke="black" points="282,-32.5 282,-281.5 578,-281.5 578,-32.5 282,-32.5"/>
<text text-anchor="middle" x="430" y="-264.2" font-family="Times,serif" font-size="14.00">IMSIC.scala</text>
</g>
<g id="clust5" class="cluster">
<title>%13</title>
<polygon fill="none" stroke="black" points="290,-40.5 290,-133 570,-133 570,-40.5 290,-40.5"/>
<text text-anchor="middle" x="430" y="-115.7" font-family="Times,serif" font-size="14.00">IMSIC.scala</text>
</g>
<!-- _class0 -->
<g id="node1" class="node">
<title>_class0</title>
<polygon fill="#f8cecc" stroke="#b85450" points="265.5,-346.5 168.5,-346.5 168.5,-305.5 265.5,-305.5 265.5,-346.5"/>
<text text-anchor="middle" x="217" y="-329.2" font-family="Times,serif" font-size="14.00">single&#45;instance</text>
<text text-anchor="middle" x="217" y="-312.7" font-family="Times,serif" font-size="14.00">class</text>
</g>
<!-- aplicparams -->
<g id="node3" class="node">
<title>aplicparams</title>
<polygon fill="#f8cecc" stroke="#b85450" points="264.38,-249 139.62,-249 139.62,-213 264.38,-213 264.38,-249"/>
<text text-anchor="middle" x="202" y="-225.95" font-family="Times,serif" font-size="14.00">class APLICParams</text>
</g>
<!-- _class0&#45;&gt;aplicparams -->
<g id="edge7" class="edge">
<title>_class0&#45;&gt;aplicparams</title>
<path fill="none" stroke="none" d="M213.82,-305.28C211.74,-292.36 208.98,-275.27 206.65,-260.84"/>
<polygon fill="none" stroke="none" points="210.11,-260.31 205.06,-250.99 203.2,-261.42 210.11,-260.31"/>
</g>
<!-- _class1 -->
<g id="node2" class="node">
<title>_class1</title>
<polygon fill="#f8cecc" stroke="#b85450" points="386,-346.5 292,-346.5 292,-305.5 386,-305.5 386,-346.5"/>
<polygon fill="none" stroke="#b85450" points="390,-350.5 288,-350.5 288,-301.5 390,-301.5 390,-350.5"/>
<polygon fill="none" stroke="#b85450" points="394,-354.5 284,-354.5 284,-297.5 394,-297.5 394,-354.5"/>
<text text-anchor="middle" x="339" y="-329.2" font-family="Times,serif" font-size="14.00">multi&#45;instance</text>
<text text-anchor="middle" x="339" y="-312.7" font-family="Times,serif" font-size="14.00">class</text>
</g>
<!-- imsicparams -->
<g id="node7" class="node">
<title>imsicparams</title>
<polygon fill="#f8cecc" stroke="#b85450" points="416.38,-249 291.62,-249 291.62,-213 416.38,-213 416.38,-249"/>
<text text-anchor="middle" x="354" y="-225.95" font-family="Times,serif" font-size="14.00">class IMSICParams</text>
</g>
<!-- _class1&#45;&gt;imsicparams -->
<g id="edge8" class="edge">
<title>_class1&#45;&gt;imsicparams</title>
<path fill="none" stroke="none" d="M343.5,-297.1C345.36,-285.58 347.51,-272.24 349.38,-260.65"/>
<polygon fill="none" stroke="none" points="352.82,-261.28 350.96,-250.85 345.91,-260.16 352.82,-261.28"/>
</g>
<!-- aplic -->
<g id="node4" class="node">
<title>aplic</title>
<polygon fill="#f8cecc" stroke="#b85450" points="242.12,-177 157.88,-177 157.88,-141 242.12,-141 242.12,-177"/>
<text text-anchor="middle" x="200" y="-153.95" font-family="Times,serif" font-size="14.00">class APLIC</text>
</g>
<!-- aplicparams&#45;&gt;aplic -->
<g id="edge1" class="edge">
<title>aplicparams&#45;&gt;aplic</title>
<path fill="none" stroke="#b85450" d="M201.51,-212.7C201.3,-205.41 201.05,-196.73 200.82,-188.54"/>
<polygon fill="#b85450" stroke="#b85450" points="204.32,-188.51 200.53,-178.62 197.32,-188.71 204.32,-188.51"/>
</g>
<!-- tlaplic -->
<g id="node5" class="node">
<title>tlaplic</title>
<polygon fill="#f8cecc" stroke="#b85450" points="124.38,-92.5 23.62,-92.5 23.62,-56.5 124.38,-56.5 124.38,-92.5"/>
<text text-anchor="middle" x="74" y="-69.45" font-family="Times,serif" font-size="14.00">class TLAPLIC</text>
</g>
<!-- aplic&#45;&gt;tlaplic -->
<g id="edge2" class="edge">
<title>aplic&#45;&gt;tlaplic</title>
<path fill="none" stroke="#b85450" d="M157.59,-144.84C149.47,-141.52 141.25,-137.58 134,-133 120.23,-124.31 106.95,-112.11 96.39,-101.18"/>
<polygon fill="#b85450" stroke="#b85450" points="98.97,-98.81 89.59,-93.89 93.85,-103.59 98.97,-98.81"/>
</g>
<!-- axi4aplic -->
<g id="node6" class="node">
<title>axi4aplic</title>
<polygon fill="#f8cecc" stroke="#b85450" points="257.5,-92.5 142.5,-92.5 142.5,-56.5 257.5,-56.5 257.5,-92.5"/>
<text text-anchor="middle" x="200" y="-69.45" font-family="Times,serif" font-size="14.00">class AXI4APLIC</text>
</g>
<!-- aplic&#45;&gt;axi4aplic -->
<g id="edge3" class="edge">
<title>aplic&#45;&gt;axi4aplic</title>
<path fill="none" stroke="#b85450" d="M200,-140.5C200,-130 200,-116.39 200,-104.33"/>
<polygon fill="#b85450" stroke="#b85450" points="203.5,-104.48 200,-94.48 196.5,-104.48 203.5,-104.48"/>
</g>
<!-- imsic -->
<g id="node8" class="node">
<title>imsic</title>
<polygon fill="#f8cecc" stroke="#b85450" points="398.12,-177 313.88,-177 313.88,-141 398.12,-141 398.12,-177"/>
<text text-anchor="middle" x="356" y="-153.95" font-family="Times,serif" font-size="14.00">class IMSIC</text>
</g>
<!-- imsicparams&#45;&gt;imsic -->
<g id="edge4" class="edge">
<title>imsicparams&#45;&gt;imsic</title>
<path fill="none" stroke="#b85450" d="M354.49,-212.7C354.7,-205.41 354.95,-196.73 355.18,-188.54"/>
<polygon fill="#b85450" stroke="#b85450" points="358.68,-188.71 355.47,-178.62 351.68,-188.51 358.68,-188.71"/>
</g>
<!-- tlimsic -->
<g id="node9" class="node">
<title>tlimsic</title>
<polygon fill="#f8cecc" stroke="#b85450" points="406,-92.5 306,-92.5 306,-56.5 406,-56.5 406,-92.5"/>
<polygon fill="none" stroke="#b85450" points="410,-96.5 302,-96.5 302,-52.5 410,-52.5 410,-96.5"/>
<polygon fill="none" stroke="#b85450" points="414,-100.5 298,-100.5 298,-48.5 414,-48.5 414,-100.5"/>
<text text-anchor="middle" x="356" y="-69.45" font-family="Times,serif" font-size="14.00">class TLIMSIC</text>
</g>
<!-- imsic&#45;&gt;tlimsic -->
<g id="edge5" class="edge">
<title>imsic&#45;&gt;tlimsic</title>
<path fill="none" stroke="#b85450" d="M356,-140.5C356,-132.21 356,-121.97 356,-112.09"/>
<polygon fill="#b85450" stroke="#b85450" points="359.5,-112.31 356,-102.31 352.5,-112.31 359.5,-112.31"/>
</g>
<!-- axi4imsic -->
<g id="node10" class="node">
<title>axi4imsic</title>
<polygon fill="#f8cecc" stroke="#b85450" points="554.12,-92.5 439.88,-92.5 439.88,-56.5 554.12,-56.5 554.12,-92.5"/>
<polygon fill="none" stroke="#b85450" points="558.12,-96.5 435.88,-96.5 435.88,-52.5 558.12,-52.5 558.12,-96.5"/>
<polygon fill="none" stroke="#b85450" points="562.12,-100.5 431.88,-100.5 431.88,-48.5 562.12,-48.5 562.12,-100.5"/>
<text text-anchor="middle" x="497" y="-69.45" font-family="Times,serif" font-size="14.00">class AXI4IMSIC</text>
</g>
<!-- imsic&#45;&gt;axi4imsic -->
<g id="edge6" class="edge">
<title>imsic&#45;&gt;axi4imsic</title>
<path fill="none" stroke="#b85450" d="M398.34,-144.43C406.72,-141.13 415.3,-137.29 423,-133 435.67,-125.93 448.49,-116.81 459.82,-107.93"/>
<polygon fill="#b85450" stroke="#b85450" points="461.78,-110.84 467.38,-101.85 457.39,-105.39 461.78,-110.84"/>
</g>
</g>
</svg>
